<?xml version="1.0" encoding="utf-8" standalone="no"?>
<!DOCTYPE svg PUBLIC "-//W3C//DTD SVG 1.1//EN"
  "http://www.w3.org/Graphics/SVG/1.1/DTD/svg11.dtd">
<!-- Created with matplotlib (http://matplotlib.org/) -->
<svg height="432pt" version="1.1" viewBox="0 0 576 432" width="576pt" xmlns="http://www.w3.org/2000/svg" xmlns:xlink="http://www.w3.org/1999/xlink">
 <defs>
  <style type="text/css">
*{stroke-linecap:butt;stroke-linejoin:round;stroke-miterlimit:100000;}
  </style>
 </defs>
 <g id="figure_1">
  <g id="patch_1">
   <path d="M 0 432 
L 576 432 
L 576 0 
L 0 0 
z
" style="fill:#ffffff;"/>
  </g>
  <g id="axes_1">
   <g id="patch_2">
    <path d="M 72 200.290909 
L 274.909091 200.290909 
L 274.909091 43.2 
L 72 43.2 
z
" style="fill:#ffffff;"/>
   </g>
   <g id="line2d_1">
    <path clip-path="url(#pdef1e7f95a)" d="M 72 57.480992 
L 99.710636 57.480992 
" style="fill:none;stroke:#000000;stroke-linecap:square;stroke-width:2.0;"/>
   </g>
   <g id="line2d_2">
    <path clip-path="url(#pdef1e7f95a)" d="M 99.710636 57.480992 
L 99.879069 57.675556 
L 107.963836 57.675556 
L 108.132268 57.87012 
L 109.142864 57.87012 
L 109.311297 58.064683 
L 113.690546 58.064683 
L 113.858979 58.259247 
L 114.701142 58.259247 
L 114.869574 58.453811 
L 115.374872 58.453811 
L 115.543305 58.648375 
L 116.890766 58.648375 
L 117.059199 58.842939 
L 118.238227 58.842939 
L 118.40666 59.037503 
L 119.922554 59.037503 
L 120.090987 59.232067 
L 121.438448 59.232067 
L 121.60688 59.426631 
L 122.112178 59.426631 
L 122.280611 59.621195 
L 123.122774 59.621195 
L 123.122774 59.621195 
" style="fill:none;stroke:#7302f5;stroke-linecap:square;stroke-width:2.0;"/>
   </g>
   <g id="line2d_3">
    <path clip-path="url(#pdef1e7f95a)" d="M 123.122774 59.621195 
L 123.45964 60.010323 
L 124.301803 60.010323 
L 124.470236 60.204887 
L 124.975533 60.204887 
L 125.143966 60.399451 
L 126.154562 60.399451 
L 126.322995 60.594014 
L 127.670456 60.594014 
L 127.838889 60.788578 
L 129.18635 60.788578 
L 129.354782 60.983142 
L 129.691648 60.983142 
L 129.86008 61.177706 
L 130.365378 61.177706 
L 130.533811 61.37227 
L 130.870676 61.37227 
L 131.039109 61.761398 
L 131.207542 61.761398 
L 131.375974 61.955962 
L 132.38657 61.955962 
L 132.555003 62.150526 
L 132.723435 62.150526 
L 132.891868 62.34509 
L 133.902464 62.34509 
L 134.070897 62.539654 
L 134.407762 62.539654 
L 134.576195 62.928781 
L 138.450146 62.928781 
L 138.618578 63.123345 
L 138.787011 63.123345 
L 138.955444 63.317909 
L 139.797607 63.317909 
L 139.966039 63.707037 
L 140.471337 63.707037 
L 140.63977 63.901601 
L 142.997827 63.901601 
L 143.334692 64.290729 
L 144.345288 64.290729 
L 144.513721 64.679857 
L 144.682154 64.679857 
L 144.850586 64.874421 
L 146.36648 64.874421 
L 146.534913 65.068985 
L 147.545509 65.068985 
L 147.882374 65.458112 
L 148.050807 66.041804 
L 149.061403 66.041804 
L 149.061403 66.041804 
" style="fill:none;stroke:#8e07eb;stroke-linecap:square;stroke-width:2.0;"/>
   </g>
   <g id="line2d_4">
    <path clip-path="url(#pdef1e7f95a)" d="M 149.061403 66.041804 
L 149.229835 66.236368 
L 149.398268 66.236368 
L 149.5667 66.430932 
L 149.903566 66.430932 
L 150.071998 66.82006 
L 150.745729 66.82006 
L 151.082594 67.209188 
L 152.09319 67.209188 
L 152.261623 67.598316 
L 152.598488 67.598316 
L 152.766921 67.987443 
L 152.935354 67.987443 
L 153.103786 68.376571 
L 153.609084 68.376571 
L 153.777517 68.571135 
L 155.293411 68.571135 
L 155.461843 69.154827 
L 155.630276 69.154827 
L 155.798709 69.349391 
L 156.304007 69.349391 
L 156.640872 69.738519 
L 157.14617 69.738519 
L 157.314602 70.127647 
L 157.651468 70.127647 
L 157.8199 70.516774 
L 157.988333 70.516774 
L 158.156766 70.711338 
L 158.325198 70.711338 
L 158.493631 71.100466 
L 158.662064 71.100466 
L 158.830496 71.489594 
L 159.504227 71.489594 
L 159.67266 71.684158 
L 159.841092 71.684158 
L 160.177957 72.073286 
L 160.34639 72.073286 
L 160.514823 72.26785 
L 160.683255 72.26785 
L 160.851688 72.462414 
L 161.356986 72.462414 
L 161.525419 72.656978 
L 161.693851 72.656978 
L 162.030717 73.240669 
L 162.367582 73.629797 
L 163.041313 73.629797 
L 163.209745 73.824361 
L 163.378178 73.824361 
L 163.715043 74.408053 
L 163.883476 74.602617 
L 164.220341 74.602617 
L 164.388774 74.797181 
L 164.557206 74.797181 
L 164.894072 75.186308 
L 165.062504 75.77 
L 165.39937 75.77 
L 165.567802 76.353692 
L 166.0731 76.353692 
L 166.241533 76.548256 
L 166.409966 76.548256 
L 166.746831 77.131948 
L 167.083696 77.131948 
L 167.252129 77.326512 
L 167.420561 77.326512 
L 167.925859 77.910203 
L 168.431157 77.910203 
L 168.59959 78.104767 
L 169.441753 78.104767 
L 169.610186 78.299331 
L 170.283917 78.299331 
L 170.620782 78.688459 
L 170.789214 78.688459 
L 170.957647 78.883023 
L 171.12608 78.883023 
L 171.294512 79.272151 
L 171.462945 79.272151 
L 171.79981 80.050406 
L 171.968243 80.24497 
L 172.305108 80.24497 
L 172.473541 80.634098 
L 172.641974 80.634098 
L 172.810406 81.412354 
L 173.147272 81.801482 
L 173.315704 81.801482 
L 173.484137 82.385174 
L 173.484137 82.385174 
" style="fill:none;stroke:#a9155c;stroke-linecap:square;stroke-width:2.0;"/>
   </g>
   <g id="line2d_5">
    <path clip-path="url(#pdef1e7f95a)" d="M 173.484137 82.385174 
L 173.65257 82.579737 
L 173.821002 82.579737 
L 173.989435 83.357993 
L 174.157867 83.357993 
L 174.3263 83.941685 
L 174.494733 83.941685 
L 175.000031 84.525377 
L 175.336896 84.525377 
L 175.505329 84.719941 
L 175.842194 84.719941 
L 176.010627 85.303632 
L 176.179059 85.303632 
L 176.347492 85.69276 
L 176.85279 85.69276 
L 177.021223 85.887324 
L 177.358088 85.887324 
L 177.52652 86.471016 
L 177.694953 86.471016 
L 177.863386 87.443835 
L 178.031818 87.638399 
L 178.368684 87.638399 
L 178.873982 88.805783 
L 179.042414 89.584039 
L 179.210847 89.584039 
L 179.37928 89.778602 
L 179.547712 89.778602 
L 179.716145 89.973166 
L 180.05301 89.973166 
L 180.389876 90.362294 
L 180.558308 90.751422 
L 180.726741 90.751422 
L 181.063606 91.529678 
L 181.568904 91.529678 
L 182.074202 92.11337 
L 182.242635 92.11337 
L 182.411067 92.502497 
L 182.747933 93.864445 
L 182.916365 94.059009 
L 183.084798 94.059009 
L 183.421663 94.6427 
L 183.590096 94.6427 
L 183.926961 95.031828 
L 184.095394 95.810084 
L 184.432259 96.199212 
L 184.769124 96.199212 
L 184.937557 96.58834 
L 185.274422 96.58834 
L 185.442855 96.782904 
L 185.611288 97.561159 
L 186.116586 97.561159 
L 186.285018 97.950287 
L 186.453451 98.728543 
L 186.621884 98.728543 
L 186.790316 99.117671 
L 186.958749 99.117671 
L 187.63248 100.479618 
L 187.800912 100.479618 
L 187.969345 100.674182 
L 188.137777 101.257874 
L 188.30621 103.203513 
L 188.643075 103.592641 
L 188.811508 104.56546 
L 188.979941 104.56546 
L 189.148373 104.760024 
L 189.316806 104.760024 
L 189.485239 105.343716 
L 189.653671 105.343716 
L 189.822104 106.121972 
L 190.158969 106.121972 
L 190.327402 106.900227 
L 190.664267 106.900227 
L 190.8327 107.094791 
L 191.001133 107.678483 
L 191.337998 107.678483 
L 191.50643 109.040431 
L 191.674863 109.234994 
L 191.843296 110.01325 
L 192.517026 110.01325 
L 192.685459 110.402378 
L 192.853892 110.402378 
L 193.022324 111.375198 
L 193.190757 111.375198 
L 193.35919 112.542581 
L 193.527622 112.931709 
L 194.03292 112.931709 
L 194.201353 114.099092 
L 194.369786 114.293656 
L 194.538218 115.266476 
L 194.706651 115.266476 
L 194.875084 116.43386 
L 195.043516 116.628423 
L 195.211949 117.212115 
L 195.548814 117.212115 
L 196.054112 118.574063 
L 196.222545 118.574063 
L 196.390977 118.768627 
L 196.727843 119.546882 
L 196.896275 119.546882 
L 197.064708 119.741446 
L 197.233141 120.130574 
L 197.401573 120.130574 
L 197.570006 121.492521 
L 197.738439 121.492521 
L 197.906871 121.687085 
L 198.075304 122.076213 
L 198.412169 122.076213 
L 198.917467 123.438161 
L 199.0859 123.438161 
L 199.0859 123.438161 
" style="fill:none;stroke:#bf2d00;stroke-linecap:square;stroke-width:2.0;"/>
   </g>
   <g id="line2d_6">
    <path clip-path="url(#pdef1e7f95a)" d="M 199.0859 123.438161 
L 199.254332 124.800108 
L 199.422765 124.800108 
L 199.928063 126.356619 
L 200.264928 126.356619 
L 200.433361 127.134875 
L 200.601794 127.329439 
L 200.770226 128.691386 
L 200.938659 128.691386 
L 201.275524 129.469642 
L 201.443957 129.469642 
L 201.61239 129.85877 
L 201.780822 129.85877 
L 202.117687 130.442462 
L 202.28612 131.998973 
L 202.454553 131.998973 
L 202.622985 132.777229 
L 202.791418 132.777229 
L 202.959851 132.971793 
L 203.465149 132.971793 
L 203.633581 133.166357 
L 203.802014 134.528304 
L 204.307312 135.695688 
L 204.81261 135.695688 
L 204.981043 136.279379 
L 205.149475 136.279379 
L 205.317908 137.252199 
L 205.486341 137.446763 
L 205.991638 138.80871 
L 206.160071 139.003274 
L 206.328504 139.003274 
L 206.496936 139.392402 
L 206.665369 139.392402 
L 206.833802 140.170658 
L 207.002234 142.310861 
L 207.507532 142.894553 
L 207.675965 142.894553 
L 207.844398 143.283681 
L 208.01283 143.283681 
L 208.518128 144.451064 
L 208.686561 144.451064 
L 209.023426 145.22932 
L 209.360291 145.22932 
L 209.865589 146.591267 
L 210.034022 147.758651 
L 210.202455 147.758651 
L 210.53932 148.73147 
L 210.707753 148.73147 
L 211.044618 149.509726 
L 211.381483 150.287982 
L 211.549916 151.066237 
L 211.718349 151.066237 
L 211.886781 151.260801 
L 212.392079 152.233621 
L 212.897377 152.233621 
L 213.06581 153.595568 
L 213.234242 153.790132 
L 213.571108 154.762952 
L 213.73954 154.957516 
L 214.244838 154.957516 
L 214.581704 155.346644 
L 214.918569 158.265102 
L 215.255434 159.62705 
L 215.423867 159.62705 
L 215.5923 159.821614 
L 215.760732 159.821614 
L 216.097597 160.405305 
L 216.26603 162.740073 
L 216.434463 162.934636 
L 216.602895 163.518328 
L 216.771328 163.518328 
L 216.939761 163.712892 
L 217.276626 163.712892 
L 217.445059 164.10202 
L 217.613491 164.10202 
L 217.781924 165.658531 
L 217.950357 165.658531 
L 218.287222 166.242223 
L 218.79252 166.242223 
L 218.960953 166.436787 
L 219.466251 167.993298 
L 219.634683 167.993298 
L 219.803116 169.54981 
L 219.971548 169.744374 
L 220.139981 169.744374 
L 220.645279 170.717193 
L 220.813712 172.273705 
L 220.982144 172.468269 
L 221.150577 172.468269 
L 221.31901 173.246524 
L 221.655875 173.246524 
L 221.824308 173.441088 
L 222.329606 173.441088 
L 222.498038 174.608472 
L 222.666471 174.608472 
L 222.834904 174.803036 
L 223.003336 174.803036 
L 223.340201 175.192163 
L 223.508634 175.192163 
L 223.677067 175.386727 
L 224.350797 177.721494 
L 224.350797 177.721494 
" style="fill:none;stroke:#d14e00;stroke-linecap:square;stroke-width:2.0;"/>
   </g>
   <g id="line2d_7">
    <path clip-path="url(#pdef1e7f95a)" d="M 224.350797 177.721494 
L 224.856095 177.721494 
L 225.192961 178.110622 
L 225.529826 179.667134 
L 226.540422 179.667134 
L 226.708854 179.861697 
L 226.877287 180.445389 
L 227.04572 182.391028 
L 227.382585 182.391028 
L 227.551018 182.585592 
L 228.393181 182.585592 
L 228.561614 183.363848 
L 228.898479 183.363848 
L 229.066912 184.142104 
L 229.909075 184.142104 
L 230.077507 184.336668 
L 230.414373 185.698615 
L 230.582805 186.476871 
L 231.593401 186.476871 
L 231.761834 186.865999 
L 231.930267 186.865999 
L 232.098699 187.060563 
L 233.109295 187.060563 
L 233.277728 187.255126 
L 233.614593 187.255126 
L 233.783026 187.44969 
L 234.625189 187.44969 
L 234.793622 188.033382 
L 235.29892 188.033382 
L 235.467352 188.227946 
L 236.141083 188.227946 
L 236.309516 188.617074 
L 236.477948 188.617074 
L 236.814814 189.200766 
L 237.825409 189.200766 
L 237.993842 189.589893 
L 238.162275 189.589893 
L 238.330707 189.784457 
L 238.667573 189.784457 
L 239.172871 190.368149 
L 239.341303 190.368149 
L 239.509736 190.562713 
L 240.520332 190.562713 
L 240.688764 190.757277 
L 240.857197 191.146405 
L 241.194062 191.146405 
L 241.530928 191.535533 
L 242.036226 191.535533 
L 242.204658 191.730097 
L 242.373091 191.730097 
L 242.541524 191.924661 
L 242.709956 191.924661 
L 242.878389 192.119224 
L 243.888985 192.119224 
L 244.057417 192.702916 
L 244.394283 192.702916 
L 244.562715 192.89748 
L 245.068013 192.89748 
L 245.404879 193.481172 
L 245.573311 193.481172 
L 245.741744 193.675736 
L 245.910177 193.675736 
L 246.078609 193.8703 
L 246.75234 193.8703 
L 246.920773 194.064864 
L 247.089205 194.064864 
L 247.257638 194.648555 
L 247.426071 194.648555 
L 247.594503 195.037683 
L 248.099801 195.037683 
L 248.773532 195.815939 
L 249.110397 195.815939 
L 249.27883 196.205067 
L 249.95256 196.205067 
L 249.95256 196.205067 
" style="fill:none;stroke:#e27c00;stroke-linecap:square;stroke-width:2.0;"/>
   </g>
   <g id="line2d_8">
    <path clip-path="url(#pdef1e7f95a)" d="M 249.95256 196.205067 
L 250.120993 196.399631 
L 250.289426 196.594195 
L 250.457858 196.594195 
L 250.626291 196.594195 
L 250.794724 196.788759 
L 250.963156 196.788759 
L 251.131589 196.788759 
L 251.300021 196.788759 
L 251.468454 196.983322 
L 251.636887 197.177886 
L 251.805319 197.177886 
L 251.973752 197.177886 
L 252.142185 197.177886 
L 252.310617 197.177886 
L 252.47905 197.177886 
L 252.647483 197.177886 
L 252.815915 197.177886 
L 252.984348 197.177886 
L 253.152781 197.37245 
L 253.321213 197.37245 
L 253.489646 197.37245 
L 253.658079 197.37245 
L 253.826511 197.567014 
L 253.994944 197.567014 
L 254.163377 197.567014 
L 254.331809 197.567014 
L 254.500242 197.761578 
L 254.668674 198.150706 
L 254.837107 198.150706 
L 255.00554 198.150706 
L 255.173972 198.150706 
L 255.342405 198.150706 
L 255.510838 198.150706 
L 255.67927 198.150706 
L 255.847703 198.150706 
L 256.016136 198.150706 
L 256.184568 198.34527 
L 256.353001 198.34527 
L 256.521434 198.34527 
L 256.689866 198.34527 
L 256.858299 198.34527 
L 257.026732 198.34527 
L 257.195164 198.34527 
L 257.363597 198.34527 
L 257.53203 198.34527 
L 257.700462 198.34527 
L 257.868895 198.34527 
L 258.037327 198.34527 
L 258.20576 198.34527 
L 258.374193 198.34527 
L 258.542625 198.34527 
L 258.711058 198.34527 
L 258.879491 198.34527 
L 259.047923 198.34527 
L 259.216356 198.539834 
L 259.384789 198.539834 
L 259.553221 198.539834 
L 259.721654 198.734398 
L 259.890087 198.734398 
L 260.058519 198.734398 
L 260.226952 198.734398 
L 260.395385 198.734398 
L 260.563817 198.928962 
L 260.73225 199.123526 
L 260.900683 199.123526 
L 261.069115 199.123526 
L 261.237548 199.123526 
L 261.405981 199.123526 
L 261.574413 199.123526 
L 261.742846 199.123526 
L 261.911278 199.123526 
L 262.079711 199.318089 
L 262.248144 199.318089 
L 262.416576 199.318089 
L 262.585009 199.318089 
L 262.753442 199.318089 
L 262.921874 199.318089 
L 263.090307 199.318089 
L 263.25874 199.318089 
L 263.427172 199.318089 
L 263.595605 199.707217 
L 263.764038 199.901781 
L 263.93247 199.901781 
L 264.100903 199.901781 
L 264.269336 199.901781 
L 264.437768 199.901781 
L 264.606201 199.901781 
L 264.774634 199.901781 
L 264.943066 199.901781 
L 265.111499 199.901781 
L 265.279931 199.901781 
L 265.448364 199.901781 
L 265.616797 199.901781 
L 265.785229 199.901781 
L 265.953662 199.901781 
L 266.122095 199.901781 
L 266.290527 199.901781 
L 266.45896 199.901781 
L 266.627393 199.901781 
L 266.795825 199.901781 
L 266.964258 199.901781 
L 267.132691 200.096345 
L 267.301123 200.096345 
L 267.469556 200.096345 
L 267.637989 200.096345 
L 267.806421 200.096345 
L 267.974854 200.096345 
L 268.143287 200.290909 
" style="fill:none;stroke:#f1b900;stroke-linecap:square;stroke-width:2.0;"/>
   </g>
   <g id="patch_3">
    <path d="M 72 200.290909 
L 274.909091 200.290909 
" style="fill:none;stroke:#000000;stroke-linecap:square;stroke-linejoin:miter;"/>
   </g>
   <g id="patch_4">
    <path d="M 274.909091 200.290909 
L 274.909091 43.2 
" style="fill:none;stroke:#000000;stroke-linecap:square;stroke-linejoin:miter;"/>
   </g>
   <g id="patch_5">
    <path d="M 72 43.2 
L 274.909091 43.2 
" style="fill:none;stroke:#000000;stroke-linecap:square;stroke-linejoin:miter;"/>
   </g>
   <g id="patch_6">
    <path d="M 72 200.290909 
L 72 43.2 
" style="fill:none;stroke:#000000;stroke-linecap:square;stroke-linejoin:miter;"/>
   </g>
   <g id="matplotlib.axis_1">
    <g id="xtick_1">
     <g id="line2d_9">
      <defs>
       <path d="M 0 0 
L 0 -4 
" id="mae4598ee9e" style="stroke:#000000;stroke-width:0.5;"/>
      </defs>
      <g>
       <use style="stroke:#000000;stroke-width:0.5;" x="72.0" xlink:href="#mae4598ee9e" y="200.290909091"/>
      </g>
     </g>
     <g id="line2d_10">
      <defs>
       <path d="M 0 0 
L 0 4 
" id="mead46afe17" style="stroke:#000000;stroke-width:0.5;"/>
      </defs>
      <g>
       <use style="stroke:#000000;stroke-width:0.5;" x="72.0" xlink:href="#mead46afe17" y="43.2"/>
      </g>
     </g>
     <g id="text_1">
      <text style="font-family:Bitstream Vera Sans;font-size:12.0px;font-style:normal;font-weight:400;text-anchor:middle;" transform="rotate(-0.000000, 72.000000, 213.409034)" x="72.0" y="213.409034091">0</text>
     </g>
    </g>
    <g id="xtick_2">
     <g id="line2d_11">
      <g>
       <use style="stroke:#000000;stroke-width:0.5;" x="97.3636363636" xlink:href="#mae4598ee9e" y="200.290909091"/>
      </g>
     </g>
     <g id="line2d_12">
      <g>
       <use style="stroke:#000000;stroke-width:0.5;" x="97.3636363636" xlink:href="#mead46afe17" y="43.2"/>
      </g>
     </g>
     <g id="text_2">
      <text style="font-family:Bitstream Vera Sans;font-size:12.0px;font-style:normal;font-weight:400;text-anchor:middle;" transform="rotate(-0.000000, 97.363636, 213.409034)" x="97.3636363636" y="213.409034091">2</text>
     </g>
    </g>
    <g id="xtick_3">
     <g id="line2d_13">
      <g>
       <use style="stroke:#000000;stroke-width:0.5;" x="122.727272727" xlink:href="#mae4598ee9e" y="200.290909091"/>
      </g>
     </g>
     <g id="line2d_14">
      <g>
       <use style="stroke:#000000;stroke-width:0.5;" x="122.727272727" xlink:href="#mead46afe17" y="43.2"/>
      </g>
     </g>
     <g id="text_3">
      <text style="font-family:Bitstream Vera Sans;font-size:12.0px;font-style:normal;font-weight:400;text-anchor:middle;" transform="rotate(-0.000000, 122.727273, 213.409034)" x="122.727272727" y="213.409034091">4</text>
     </g>
    </g>
    <g id="xtick_4">
     <g id="line2d_15">
      <g>
       <use style="stroke:#000000;stroke-width:0.5;" x="148.090909091" xlink:href="#mae4598ee9e" y="200.290909091"/>
      </g>
     </g>
     <g id="line2d_16">
      <g>
       <use style="stroke:#000000;stroke-width:0.5;" x="148.090909091" xlink:href="#mead46afe17" y="43.2"/>
      </g>
     </g>
     <g id="text_4">
      <text style="font-family:Bitstream Vera Sans;font-size:12.0px;font-style:normal;font-weight:400;text-anchor:middle;" transform="rotate(-0.000000, 148.090909, 213.409034)" x="148.090909091" y="213.409034091">6</text>
     </g>
    </g>
    <g id="xtick_5">
     <g id="line2d_17">
      <g>
       <use style="stroke:#000000;stroke-width:0.5;" x="173.454545455" xlink:href="#mae4598ee9e" y="200.290909091"/>
      </g>
     </g>
     <g id="line2d_18">
      <g>
       <use style="stroke:#000000;stroke-width:0.5;" x="173.454545455" xlink:href="#mead46afe17" y="43.2"/>
      </g>
     </g>
     <g id="text_5">
      <text style="font-family:Bitstream Vera Sans;font-size:12.0px;font-style:normal;font-weight:400;text-anchor:middle;" transform="rotate(-0.000000, 173.454545, 213.409034)" x="173.454545455" y="213.409034091">8</text>
     </g>
    </g>
    <g id="xtick_6">
     <g id="line2d_19">
      <g>
       <use style="stroke:#000000;stroke-width:0.5;" x="198.818181818" xlink:href="#mae4598ee9e" y="200.290909091"/>
      </g>
     </g>
     <g id="line2d_20">
      <g>
       <use style="stroke:#000000;stroke-width:0.5;" x="198.818181818" xlink:href="#mead46afe17" y="43.2"/>
      </g>
     </g>
     <g id="text_6">
      <text style="font-family:Bitstream Vera Sans;font-size:12.0px;font-style:normal;font-weight:400;text-anchor:middle;" transform="rotate(-0.000000, 198.818182, 213.409034)" x="198.818181818" y="213.409034091">10</text>
     </g>
    </g>
    <g id="xtick_7">
     <g id="line2d_21">
      <g>
       <use style="stroke:#000000;stroke-width:0.5;" x="224.181818182" xlink:href="#mae4598ee9e" y="200.290909091"/>
      </g>
     </g>
     <g id="line2d_22">
      <g>
       <use style="stroke:#000000;stroke-width:0.5;" x="224.181818182" xlink:href="#mead46afe17" y="43.2"/>
      </g>
     </g>
     <g id="text_7">
      <text style="font-family:Bitstream Vera Sans;font-size:12.0px;font-style:normal;font-weight:400;text-anchor:middle;" transform="rotate(-0.000000, 224.181818, 213.409034)" x="224.181818182" y="213.409034091">12</text>
     </g>
    </g>
    <g id="xtick_8">
     <g id="line2d_23">
      <g>
       <use style="stroke:#000000;stroke-width:0.5;" x="249.545454545" xlink:href="#mae4598ee9e" y="200.290909091"/>
      </g>
     </g>
     <g id="line2d_24">
      <g>
       <use style="stroke:#000000;stroke-width:0.5;" x="249.545454545" xlink:href="#mead46afe17" y="43.2"/>
      </g>
     </g>
     <g id="text_8">
      <text style="font-family:Bitstream Vera Sans;font-size:12.0px;font-style:normal;font-weight:400;text-anchor:middle;" transform="rotate(-0.000000, 249.545455, 213.409034)" x="249.545454545" y="213.409034091">14</text>
     </g>
    </g>
    <g id="xtick_9">
     <g id="line2d_25">
      <g>
       <use style="stroke:#000000;stroke-width:0.5;" x="274.909090909" xlink:href="#mae4598ee9e" y="200.290909091"/>
      </g>
     </g>
     <g id="line2d_26">
      <g>
       <use style="stroke:#000000;stroke-width:0.5;" x="274.909090909" xlink:href="#mead46afe17" y="43.2"/>
      </g>
     </g>
     <g id="text_9">
      <text style="font-family:Bitstream Vera Sans;font-size:12.0px;font-style:normal;font-weight:400;text-anchor:middle;" transform="rotate(-0.000000, 274.909091, 213.409034)" x="274.909090909" y="213.409034091">16</text>
     </g>
    </g>
    <g id="text_10">
     <text style="font-family:Bitstream Vera Sans;font-size:12.0px;font-style:normal;font-weight:400;text-anchor:middle;" transform="rotate(-0.000000, 173.454545, 230.022784)" x="173.454545455" y="230.022784091">Days Post-Maturity</text>
    </g>
   </g>
   <g id="matplotlib.axis_2">
    <g id="ytick_1">
     <g id="line2d_27">
      <defs>
       <path d="M 0 0 
L 4 0 
" id="mda39fc7fe4" style="stroke:#000000;stroke-width:0.5;"/>
      </defs>
      <g>
       <use style="stroke:#000000;stroke-width:0.5;" x="72.0" xlink:href="#mda39fc7fe4" y="200.290909091"/>
      </g>
     </g>
     <g id="line2d_28">
      <defs>
       <path d="M 0 0 
L -4 0 
" id="m4fa8c1c345" style="stroke:#000000;stroke-width:0.5;"/>
      </defs>
      <g>
       <use style="stroke:#000000;stroke-width:0.5;" x="274.909090909" xlink:href="#m4fa8c1c345" y="200.290909091"/>
      </g>
     </g>
     <g id="text_11">
      <text style="font-family:Bitstream Vera Sans;font-size:12.0px;font-style:normal;font-weight:400;text-anchor:end;" transform="rotate(-0.000000, 68.000000, 203.602159)" x="68.0" y="203.602159091">0.0</text>
     </g>
    </g>
    <g id="ytick_2">
     <g id="line2d_29">
      <g>
       <use style="stroke:#000000;stroke-width:0.5;" x="72.0" xlink:href="#mda39fc7fe4" y="171.72892562"/>
      </g>
     </g>
     <g id="line2d_30">
      <g>
       <use style="stroke:#000000;stroke-width:0.5;" x="274.909090909" xlink:href="#m4fa8c1c345" y="171.72892562"/>
      </g>
     </g>
     <g id="text_12">
      <text style="font-family:Bitstream Vera Sans;font-size:12.0px;font-style:normal;font-weight:400;text-anchor:end;" transform="rotate(-0.000000, 68.000000, 175.040176)" x="68.0" y="175.04017562">0.2</text>
     </g>
    </g>
    <g id="ytick_3">
     <g id="line2d_31">
      <g>
       <use style="stroke:#000000;stroke-width:0.5;" x="72.0" xlink:href="#mda39fc7fe4" y="143.166942149"/>
      </g>
     </g>
     <g id="line2d_32">
      <g>
       <use style="stroke:#000000;stroke-width:0.5;" x="274.909090909" xlink:href="#m4fa8c1c345" y="143.166942149"/>
      </g>
     </g>
     <g id="text_13">
      <text style="font-family:Bitstream Vera Sans;font-size:12.0px;font-style:normal;font-weight:400;text-anchor:end;" transform="rotate(-0.000000, 68.000000, 146.478192)" x="68.0" y="146.478192149">0.4</text>
     </g>
    </g>
    <g id="ytick_4">
     <g id="line2d_33">
      <g>
       <use style="stroke:#000000;stroke-width:0.5;" x="72.0" xlink:href="#mda39fc7fe4" y="114.604958678"/>
      </g>
     </g>
     <g id="line2d_34">
      <g>
       <use style="stroke:#000000;stroke-width:0.5;" x="274.909090909" xlink:href="#m4fa8c1c345" y="114.604958678"/>
      </g>
     </g>
     <g id="text_14">
      <text style="font-family:Bitstream Vera Sans;font-size:12.0px;font-style:normal;font-weight:400;text-anchor:end;" transform="rotate(-0.000000, 68.000000, 117.916209)" x="68.0" y="117.916208678">0.6</text>
     </g>
    </g>
    <g id="ytick_5">
     <g id="line2d_35">
      <g>
       <use style="stroke:#000000;stroke-width:0.5;" x="72.0" xlink:href="#mda39fc7fe4" y="86.0429752066"/>
      </g>
     </g>
     <g id="line2d_36">
      <g>
       <use style="stroke:#000000;stroke-width:0.5;" x="274.909090909" xlink:href="#m4fa8c1c345" y="86.0429752066"/>
      </g>
     </g>
     <g id="text_15">
      <text style="font-family:Bitstream Vera Sans;font-size:12.0px;font-style:normal;font-weight:400;text-anchor:end;" transform="rotate(-0.000000, 68.000000, 89.354225)" x="68.0" y="89.3542252066">0.8</text>
     </g>
    </g>
    <g id="ytick_6">
     <g id="line2d_37">
      <g>
       <use style="stroke:#000000;stroke-width:0.5;" x="72.0" xlink:href="#mda39fc7fe4" y="57.4809917355"/>
      </g>
     </g>
     <g id="line2d_38">
      <g>
       <use style="stroke:#000000;stroke-width:0.5;" x="274.909090909" xlink:href="#m4fa8c1c345" y="57.4809917355"/>
      </g>
     </g>
     <g id="text_16">
      <text style="font-family:Bitstream Vera Sans;font-size:12.0px;font-style:normal;font-weight:400;text-anchor:end;" transform="rotate(-0.000000, 68.000000, 60.792242)" x="68.0" y="60.7922417355">1.0</text>
     </g>
    </g>
    <g id="text_17">
     <text style="font-family:Bitstream Vera Sans;font-size:12.0px;font-style:normal;font-weight:400;text-anchor:middle;" transform="rotate(-90.000000, 41.420625, 121.745455)" x="41.420625" y="121.745454545">% Surviving</text>
    </g>
   </g>
   <g id="text_18">
    <text style="font-family:Bitstream Vera Sans;font-size:14.399999999999999px;font-style:normal;font-weight:400;text-anchor:middle;" transform="rotate(-0.000000, 173.454545, 38.200000)" x="173.454545455" y="38.2">spe-9(hc88) Adult Survival in Corrals</text>
   </g>
  </g>
  <g id="axes_2">
   <g id="patch_7">
    <path d="M 315.490909 200.290909 
L 518.4 200.290909 
L 518.4 43.2 
L 315.490909 43.2 
z
" style="fill:#ffffff;"/>
   </g>
   <g id="line2d_39">
    <path clip-path="url(#p9e22fb6d63)" d="M 315.490909 57.480992 
L 337.605005 57.480992 
" style="fill:none;stroke:#000000;stroke-linecap:square;stroke-width:2.0;"/>
   </g>
   <g id="line2d_40">
    <path clip-path="url(#p9e22fb6d63)" d="M 337.605005 57.480992 
L 337.785505 58.195041 
L 369.011934 58.195041 
L 369.011934 58.195041 
" style="fill:none;stroke:#4f0093;stroke-linecap:square;stroke-width:2.0;"/>
   </g>
   <g id="line2d_41">
    <path clip-path="url(#p9e22fb6d63)" d="M 369.011934 58.195041 
L 369.192434 58.909091 
L 369.372933 58.909091 
L 369.553433 58.909091 
L 369.733933 58.909091 
L 369.914432 58.909091 
L 370.094932 58.909091 
L 370.275431 58.909091 
L 370.455931 58.909091 
L 370.63643 58.909091 
L 370.81693 58.909091 
L 370.99743 58.909091 
L 371.177929 58.909091 
L 371.358429 58.909091 
L 371.538928 58.909091 
L 371.719428 58.909091 
L 371.899928 58.909091 
L 372.080427 58.909091 
L 372.260927 58.909091 
L 372.441426 58.909091 
L 372.621926 58.909091 
L 372.802426 58.909091 
L 372.982925 59.62314 
L 373.163425 59.62314 
L 373.343924 59.62314 
L 373.524424 59.62314 
L 373.704924 59.62314 
L 373.885423 59.62314 
L 374.065923 59.62314 
L 374.246422 59.62314 
L 374.426922 59.62314 
L 374.607421 59.62314 
L 374.787921 59.62314 
L 374.968421 59.62314 
L 375.14892 59.62314 
L 375.32942 59.62314 
L 375.509919 59.62314 
L 375.690419 59.62314 
L 375.870919 59.62314 
L 376.051418 59.62314 
L 376.231918 59.62314 
L 376.412417 59.62314 
L 376.592917 59.62314 
L 376.773417 59.62314 
L 376.953916 59.62314 
L 377.134416 59.62314 
L 377.314915 59.62314 
L 377.495415 59.62314 
L 377.675914 59.62314 
L 377.856414 59.62314 
L 378.036914 59.62314 
L 378.217413 59.62314 
L 378.397913 59.62314 
L 378.578412 59.62314 
L 378.758912 59.62314 
L 378.939412 59.62314 
L 379.119911 59.62314 
L 379.300411 59.62314 
L 379.48091 59.62314 
L 379.66141 60.33719 
L 379.84191 60.33719 
L 380.022409 60.33719 
L 380.202909 60.33719 
L 380.383408 60.33719 
L 380.563908 60.33719 
L 380.744408 60.33719 
L 380.924907 60.33719 
L 381.105407 60.33719 
L 381.285906 60.33719 
L 381.466406 60.33719 
L 381.646905 60.33719 
L 381.827405 60.33719 
L 382.007905 60.33719 
L 382.188404 60.33719 
L 382.368904 60.33719 
L 382.549403 60.33719 
L 382.729903 61.05124 
" style="fill:none;stroke:#8104fe;stroke-linecap:square;stroke-width:2.0;"/>
   </g>
   <g id="line2d_42">
    <path clip-path="url(#p9e22fb6d63)" d="M 382.729903 61.05124 
L 382.910403 61.05124 
L 383.090902 61.05124 
L 383.271402 61.05124 
L 383.451901 61.05124 
L 383.632401 61.05124 
L 383.812901 61.05124 
L 383.9934 61.05124 
L 384.1739 61.05124 
L 384.354399 61.05124 
L 384.534899 61.05124 
L 384.715399 61.05124 
L 384.895898 61.05124 
L 385.076398 61.05124 
L 385.256897 61.05124 
L 385.437397 61.05124 
L 385.617896 61.05124 
L 385.798396 61.05124 
L 385.978896 61.05124 
L 386.159395 61.05124 
L 386.339895 61.765289 
L 386.520394 61.765289 
L 386.700894 62.479339 
L 386.881394 62.479339 
L 387.061893 62.479339 
L 387.242393 62.479339 
L 387.422892 62.479339 
L 387.603392 62.479339 
L 387.783892 62.479339 
L 387.964391 62.479339 
L 388.144891 62.479339 
L 388.32539 62.479339 
L 388.50589 62.479339 
L 388.686389 62.479339 
L 388.866889 62.479339 
L 389.047389 62.479339 
L 389.227888 63.193388 
L 389.408388 63.193388 
L 389.588887 63.193388 
L 389.769387 63.193388 
L 389.949887 63.193388 
L 390.130386 63.193388 
L 390.310886 63.193388 
L 390.491385 63.193388 
L 390.671885 63.193388 
L 390.852385 63.907438 
L 391.032884 63.907438 
L 391.213384 63.907438 
L 391.393883 63.907438 
L 391.574383 63.907438 
L 391.754883 63.907438 
L 391.935382 63.907438 
L 392.115882 63.907438 
L 392.296381 63.907438 
L 392.476881 63.907438 
L 392.65738 63.907438 
L 392.83788 63.907438 
L 393.01838 63.907438 
L 393.198879 63.907438 
L 393.379379 63.907438 
L 393.559878 63.907438 
L 393.740378 63.907438 
L 393.920878 63.907438 
L 394.101377 63.907438 
L 394.281877 63.907438 
L 394.462376 63.907438 
L 394.642876 63.907438 
L 394.823376 63.907438 
L 395.003875 63.907438 
L 395.184375 63.907438 
L 395.364874 63.907438 
L 395.545374 64.621488 
" style="fill:none;stroke:#8f08e8;stroke-linecap:square;stroke-width:2.0;"/>
   </g>
   <g id="line2d_43">
    <path clip-path="url(#p9e22fb6d63)" d="M 395.545374 64.621488 
L 395.725874 65.335537 
L 395.906373 65.335537 
L 396.086873 65.335537 
L 396.267372 66.049587 
L 396.447872 66.049587 
L 396.628371 66.049587 
L 396.808871 66.763636 
L 396.989371 66.763636 
L 397.16987 67.477686 
L 397.35037 67.477686 
L 397.530869 67.477686 
L 397.711369 67.477686 
L 397.891869 68.191736 
L 398.072368 68.191736 
L 398.252868 68.191736 
L 398.433367 68.191736 
L 398.613867 68.191736 
L 398.794367 68.191736 
L 398.974866 68.191736 
L 399.155366 68.191736 
L 399.335865 68.191736 
L 399.516365 69.619835 
L 399.696864 70.333884 
L 399.877364 70.333884 
L 400.057864 70.333884 
L 400.238363 70.333884 
L 400.418863 70.333884 
L 400.599362 70.333884 
L 400.779862 70.333884 
L 400.960362 70.333884 
L 401.140861 71.047934 
L 401.321361 71.761983 
L 401.50186 71.761983 
L 401.68236 71.761983 
L 401.86286 71.761983 
L 402.043359 71.761983 
L 402.223859 71.761983 
L 402.404358 71.761983 
L 402.584858 71.761983 
L 402.765358 71.761983 
L 402.945857 71.761983 
L 403.126357 71.761983 
L 403.306856 71.761983 
L 403.487356 71.761983 
L 403.667855 71.761983 
L 403.848355 71.761983 
L 404.028855 71.761983 
L 404.209354 71.761983 
L 404.389854 71.761983 
L 404.570353 71.761983 
L 404.750853 71.761983 
L 404.931353 71.761983 
L 405.111852 72.476033 
L 405.292352 72.476033 
L 405.472851 72.476033 
L 405.653351 72.476033 
L 405.833851 72.476033 
L 406.01435 72.476033 
L 406.19485 72.476033 
L 406.375349 72.476033 
L 406.555849 72.476033 
L 406.736349 73.190083 
L 406.916848 73.190083 
L 407.097348 73.904132 
L 407.277847 73.904132 
L 407.458347 73.904132 
L 407.638846 73.904132 
" style="fill:none;stroke:#9c0db4;stroke-linecap:square;stroke-width:2.0;"/>
   </g>
   <g id="line2d_44">
    <path clip-path="url(#p9e22fb6d63)" d="M 407.638846 73.904132 
L 407.819346 74.618182 
L 407.999846 74.618182 
L 408.180345 74.618182 
L 408.360845 74.618182 
L 408.541344 75.332231 
L 408.721844 75.332231 
L 408.902344 75.332231 
L 409.082843 76.046281 
L 409.263343 76.046281 
L 409.443842 76.760331 
L 409.624342 76.760331 
L 409.804842 76.760331 
L 409.985341 77.47438 
L 410.165841 77.47438 
L 410.34634 77.47438 
L 410.52684 77.47438 
L 410.707339 78.18843 
L 410.887839 78.18843 
L 411.068339 78.902479 
L 411.248838 79.616529 
L 411.429338 79.616529 
L 411.609837 79.616529 
L 411.790337 80.330579 
L 411.970837 80.330579 
L 412.151336 80.330579 
L 412.331836 81.044628 
L 412.512335 81.758678 
L 412.692835 81.758678 
L 412.873335 81.758678 
L 413.053834 83.186777 
L 413.234334 83.900826 
L 413.414833 83.900826 
L 413.595333 84.614876 
L 413.775833 85.328926 
L 413.956332 86.757025 
L 414.136832 87.471074 
L 414.317331 87.471074 
L 414.497831 87.471074 
L 414.67833 87.471074 
L 414.85883 88.185124 
L 415.03933 88.185124 
L 415.219829 88.185124 
L 415.400329 88.185124 
L 415.580828 88.185124 
L 415.761328 88.185124 
L 415.941828 88.185124 
L 416.122327 88.899174 
L 416.302827 89.613223 
L 416.483326 89.613223 
L 416.663826 89.613223 
L 416.844326 89.613223 
L 417.024825 89.613223 
L 417.205325 89.613223 
L 417.385824 89.613223 
L 417.566324 89.613223 
L 417.746824 89.613223 
L 417.927323 89.613223 
L 418.107823 89.613223 
L 418.288322 89.613223 
L 418.468822 89.613223 
L 418.649321 89.613223 
L 418.829821 90.327273 
L 419.010321 90.327273 
L 419.19082 90.327273 
L 419.37132 90.327273 
L 419.551819 90.327273 
L 419.732319 91.041322 
L 419.912819 91.755372 
L 420.093318 92.469421 
L 420.273818 92.469421 
L 420.454317 92.469421 
L 420.634817 92.469421 
L 420.815317 93.183471 
" style="fill:none;stroke:#a81465;stroke-linecap:square;stroke-width:2.0;"/>
   </g>
   <g id="line2d_45">
    <path clip-path="url(#p9e22fb6d63)" d="M 420.815317 93.183471 
L 420.995816 93.183471 
L 421.176316 93.897521 
L 421.356815 94.61157 
L 421.537315 94.61157 
L 421.717814 94.61157 
L 421.898314 94.61157 
L 422.078814 94.61157 
L 422.259313 94.61157 
L 422.439813 94.61157 
L 422.620312 94.61157 
L 422.800812 96.753719 
L 422.981312 96.753719 
L 423.161811 96.753719 
L 423.342311 96.753719 
L 423.52281 96.753719 
L 423.70331 97.467769 
L 423.88381 97.467769 
L 424.064309 97.467769 
L 424.244809 97.467769 
L 424.425308 97.467769 
L 424.605808 97.467769 
L 424.786308 97.467769 
L 424.966807 97.467769 
L 425.147307 97.467769 
L 425.327806 97.467769 
L 425.508306 97.467769 
L 425.688805 97.467769 
L 425.869305 97.467769 
L 426.049805 97.467769 
L 426.230304 97.467769 
L 426.410804 97.467769 
L 426.591303 97.467769 
L 426.771803 97.467769 
L 426.952303 97.467769 
L 427.132802 97.467769 
L 427.313302 97.467769 
L 427.493801 97.467769 
L 427.674301 98.895868 
L 427.854801 98.895868 
L 428.0353 99.609917 
L 428.2158 99.609917 
L 428.396299 100.323967 
L 428.576799 101.038017 
L 428.757299 101.038017 
L 428.937798 101.038017 
L 429.118298 102.466116 
L 429.298797 102.466116 
L 429.479297 102.466116 
L 429.659796 103.180165 
L 429.840296 103.180165 
L 430.020796 104.608264 
L 430.201295 104.608264 
L 430.381795 104.608264 
L 430.562294 104.608264 
L 430.742794 106.036364 
L 430.923294 106.036364 
L 431.103793 106.036364 
L 431.284293 106.036364 
L 431.464792 106.036364 
L 431.645292 106.750413 
L 431.825792 106.750413 
L 432.006291 106.750413 
L 432.186791 106.750413 
L 432.36729 106.750413 
L 432.54779 106.750413 
L 432.728289 107.464463 
L 432.908789 107.464463 
L 433.089289 107.464463 
L 433.269788 108.892562 
L 433.450288 108.892562 
L 433.630787 108.892562 
L 433.811287 108.892562 
" style="fill:none;stroke:#b31f03;stroke-linecap:square;stroke-width:2.0;"/>
   </g>
   <g id="line2d_46">
    <path clip-path="url(#p9e22fb6d63)" d="M 433.811287 108.892562 
L 433.991787 109.606612 
L 434.172286 109.606612 
L 434.352786 109.606612 
L 434.533285 109.606612 
L 434.713785 110.320661 
L 434.894285 110.320661 
L 435.074784 110.320661 
L 435.255284 110.320661 
L 435.435783 111.034711 
L 435.616283 111.74876 
L 435.796783 112.46281 
L 435.977282 112.46281 
L 436.157782 112.46281 
L 436.338281 113.17686 
L 436.518781 113.17686 
L 436.69928 113.17686 
L 436.87978 113.17686 
L 437.06028 113.17686 
L 437.240779 113.17686 
L 437.421279 113.17686 
L 437.601778 113.17686 
L 437.782278 113.17686 
L 437.962778 113.890909 
L 438.143277 113.890909 
L 438.323777 113.890909 
L 438.504276 113.890909 
L 438.684776 113.890909 
L 438.865276 114.604959 
L 439.045775 114.604959 
L 439.226275 115.319008 
L 439.406774 115.319008 
L 439.587274 116.033058 
L 439.767774 116.033058 
L 439.948273 117.461157 
L 440.128773 117.461157 
L 440.309272 118.175207 
L 440.489772 118.175207 
L 440.670271 118.175207 
L 440.850771 118.175207 
L 441.031271 118.889256 
L 441.21177 118.889256 
L 441.39227 118.889256 
L 441.572769 118.889256 
L 441.753269 118.889256 
L 441.933769 118.889256 
L 442.114268 118.889256 
L 442.294768 119.603306 
L 442.475267 119.603306 
L 442.655767 119.603306 
L 442.836267 119.603306 
L 443.016766 119.603306 
L 443.197266 119.603306 
L 443.377765 119.603306 
L 443.558265 119.603306 
L 443.738764 119.603306 
L 443.919264 121.031405 
L 444.099764 121.031405 
L 444.280263 121.745455 
L 444.460763 121.745455 
L 444.641262 121.745455 
L 444.821762 123.887603 
L 445.002262 123.887603 
L 445.182761 124.601653 
L 445.363261 124.601653 
L 445.54376 124.601653 
L 445.72426 124.601653 
L 445.90476 125.315702 
L 446.085259 126.029752 
L 446.265759 126.029752 
L 446.446258 126.743802 
L 446.626758 126.743802 
" style="fill:none;stroke:#be2b00;stroke-linecap:square;stroke-width:2.0;"/>
   </g>
   <g id="line2d_47">
    <path clip-path="url(#p9e22fb6d63)" d="M 446.626758 126.743802 
L 446.807258 128.171901 
L 446.987757 128.171901 
L 447.168257 128.171901 
L 447.348756 128.171901 
L 447.529256 129.6 
L 447.709755 130.31405 
L 447.890255 130.31405 
L 448.070755 130.31405 
L 448.251254 130.31405 
L 448.431754 131.028099 
L 448.612253 131.028099 
L 448.792753 132.456198 
L 448.973253 132.456198 
L 449.153752 133.170248 
L 449.334252 133.170248 
L 449.514751 133.884298 
L 449.695251 133.884298 
L 449.875751 133.884298 
L 450.05625 133.884298 
L 450.23675 136.026446 
L 450.417249 136.026446 
L 450.597749 136.026446 
L 450.778249 136.026446 
L 450.958748 136.026446 
L 451.139248 137.454545 
L 451.319747 137.454545 
L 451.500247 138.168595 
L 451.680746 138.168595 
L 451.861246 138.168595 
L 452.041746 138.168595 
L 452.222245 138.168595 
L 452.402745 140.310744 
L 452.583244 140.310744 
L 452.763744 141.024793 
L 452.944244 141.024793 
L 453.124743 141.024793 
L 453.305243 141.024793 
L 453.485742 141.024793 
L 453.666242 141.024793 
L 453.846742 141.024793 
L 454.027241 141.738843 
L 454.207741 141.738843 
L 454.38824 142.452893 
L 454.56874 142.452893 
L 454.749239 142.452893 
L 454.929739 143.166942 
L 455.110239 143.166942 
L 455.290738 143.166942 
L 455.471238 143.166942 
L 455.651737 143.166942 
L 455.832237 143.880992 
L 456.012737 144.595041 
L 456.193236 144.595041 
L 456.373736 145.309091 
L 456.554235 145.309091 
L 456.734735 145.309091 
L 456.915235 145.309091 
L 457.095734 145.309091 
L 457.276234 145.309091 
L 457.456733 145.309091 
L 457.637233 145.309091 
L 457.817733 145.309091 
L 457.998232 145.309091 
L 458.178732 145.309091 
L 458.359231 146.02314 
L 458.539731 146.73719 
L 458.72023 147.45124 
L 458.90073 147.45124 
L 459.08123 148.165289 
L 459.261729 148.165289 
L 459.442229 148.165289 
L 459.622728 148.165289 
L 459.803228 148.165289 
L 459.983728 148.165289 
L 460.164227 148.165289 
L 460.344727 148.165289 
" style="fill:none;stroke:#c63800;stroke-linecap:square;stroke-width:2.0;"/>
   </g>
   <g id="line2d_48">
    <path clip-path="url(#p9e22fb6d63)" d="M 460.344727 148.165289 
L 460.525226 148.879339 
L 460.705726 149.593388 
L 460.886226 149.593388 
L 461.066725 149.593388 
L 461.247225 149.593388 
L 461.427724 149.593388 
L 461.608224 150.307438 
L 461.788724 150.307438 
L 461.969223 150.307438 
L 462.149723 150.307438 
L 462.330222 151.021488 
L 462.510722 151.021488 
L 462.691221 153.877686 
L 462.871721 153.877686 
L 463.052221 153.877686 
L 463.23272 153.877686 
L 463.41322 153.877686 
L 463.593719 155.305785 
L 463.774219 155.305785 
L 463.954719 156.019835 
L 464.135218 156.733884 
L 464.315718 156.733884 
L 464.496217 156.733884 
L 464.676717 157.447934 
L 464.857217 157.447934 
L 465.037716 157.447934 
L 465.218216 157.447934 
L 465.398715 157.447934 
L 465.579215 158.876033 
L 465.759714 158.876033 
L 465.940214 159.590083 
L 466.120714 160.304132 
L 466.301213 160.304132 
L 466.481713 160.304132 
L 466.662212 160.304132 
L 466.842712 160.304132 
L 467.023212 160.304132 
L 467.203711 161.732231 
L 467.384211 161.732231 
L 467.56471 161.732231 
L 467.74521 161.732231 
L 467.92571 162.446281 
L 468.106209 162.446281 
L 468.286709 162.446281 
L 468.467208 162.446281 
L 468.647708 163.160331 
L 468.828208 163.160331 
L 469.008707 163.160331 
L 469.189207 163.160331 
L 469.369706 163.160331 
L 469.550206 163.87438 
L 469.730705 164.58843 
L 469.911205 165.302479 
L 470.091705 165.302479 
L 470.272204 165.302479 
L 470.452704 165.302479 
L 470.633203 165.302479 
L 470.813703 165.302479 
L 470.994203 165.302479 
L 471.174702 166.016529 
L 471.355202 166.730579 
L 471.535701 166.730579 
L 471.716201 166.730579 
L 471.896701 166.730579 
L 472.0772 167.444628 
L 472.2577 167.444628 
L 472.438199 168.158678 
L 472.618699 168.158678 
L 472.799199 168.158678 
L 472.979698 168.158678 
L 473.160198 168.158678 
" style="fill:none;stroke:#d04b00;stroke-linecap:square;stroke-width:2.0;"/>
   </g>
   <g id="line2d_49">
    <path clip-path="url(#p9e22fb6d63)" d="M 473.160198 168.158678 
L 473.340697 168.872727 
L 473.521197 168.872727 
L 473.701696 168.872727 
L 473.882196 168.872727 
L 474.062696 168.872727 
L 474.243195 168.872727 
L 474.423695 170.300826 
L 474.604194 170.300826 
L 474.784694 170.300826 
L 474.965194 170.300826 
L 475.145693 170.300826 
L 475.326193 170.300826 
L 475.506692 170.300826 
L 475.687192 170.300826 
L 475.867692 171.728926 
L 476.048191 171.728926 
L 476.228691 171.728926 
L 476.40919 171.728926 
L 476.58969 171.728926 
L 476.77019 173.157025 
L 476.950689 173.157025 
L 477.131189 173.157025 
L 477.311688 173.157025 
L 477.492188 173.157025 
L 477.672687 173.157025 
L 477.853187 173.871074 
L 478.033687 174.585124 
L 478.214186 175.299174 
L 478.394686 176.013223 
L 478.575185 176.013223 
L 478.755685 176.013223 
L 478.936185 176.013223 
L 479.116684 176.013223 
L 479.297184 176.013223 
L 479.477683 176.013223 
L 479.658183 176.013223 
L 479.838683 176.013223 
L 480.019182 178.155372 
L 480.199682 178.869421 
L 480.380181 179.583471 
L 480.560681 179.583471 
L 480.74118 179.583471 
L 480.92168 179.583471 
L 481.10218 179.583471 
L 481.282679 179.583471 
L 481.463179 180.297521 
L 481.643678 180.297521 
L 481.824178 180.297521 
L 482.004678 180.297521 
L 482.185177 180.297521 
L 482.365677 180.297521 
L 482.546176 180.297521 
L 482.726676 180.297521 
L 482.907176 180.297521 
L 483.087675 180.297521 
L 483.268175 181.01157 
L 483.448674 181.01157 
L 483.629174 181.01157 
L 483.809674 181.01157 
L 483.990173 181.72562 
L 484.170673 181.72562 
L 484.351172 181.72562 
L 484.531672 181.72562 
L 484.712171 181.72562 
L 484.892671 182.439669 
L 485.073171 182.439669 
L 485.25367 183.153719 
L 485.43417 183.153719 
L 485.614669 184.581818 
L 485.795169 184.581818 
L 485.975669 184.581818 
L 486.156168 184.581818 
L 486.336668 184.581818 
L 486.517167 184.581818 
L 486.697667 184.581818 
L 486.878167 184.581818 
L 487.058666 184.581818 
L 487.239166 184.581818 
L 487.419665 184.581818 
L 487.600165 184.581818 
L 487.780665 184.581818 
L 487.961164 184.581818 
L 488.141664 184.581818 
L 488.322163 184.581818 
" style="fill:none;stroke:#d96200;stroke-linecap:square;stroke-width:2.0;"/>
   </g>
   <g id="line2d_50">
    <path clip-path="url(#p9e22fb6d63)" d="M 488.322163 184.581818 
L 488.502663 185.295868 
L 488.683162 185.295868 
L 488.863662 186.723967 
L 489.044162 186.723967 
L 489.224661 186.723967 
L 489.405161 186.723967 
L 489.58566 187.438017 
L 489.76616 188.152066 
L 489.94666 188.152066 
L 490.127159 188.152066 
L 490.307659 188.152066 
L 490.488158 188.152066 
L 490.668658 188.152066 
L 490.849158 188.866116 
L 491.029657 188.866116 
L 491.210157 188.866116 
L 491.390656 188.866116 
L 491.571156 189.580165 
L 491.751655 189.580165 
L 491.932155 190.294215 
L 492.112655 190.294215 
L 492.293154 190.294215 
L 492.473654 190.294215 
L 492.654153 190.294215 
L 492.834653 190.294215 
L 493.015153 191.008264 
L 493.195652 191.008264 
L 493.376152 191.008264 
L 493.556651 191.008264 
L 493.737151 191.008264 
L 493.917651 192.436364 
L 494.09815 192.436364 
L 494.27865 192.436364 
L 494.459149 192.436364 
L 494.639649 192.436364 
L 494.820149 192.436364 
L 495.000648 192.436364 
L 495.181148 192.436364 
L 495.361647 192.436364 
L 495.542147 193.150413 
L 495.722646 193.864463 
L 495.903146 193.864463 
L 496.083646 193.864463 
L 496.264145 193.864463 
L 496.444645 194.578512 
L 496.625144 194.578512 
L 496.805644 194.578512 
L 496.986144 194.578512 
L 497.166643 194.578512 
L 497.347143 194.578512 
L 497.527642 194.578512 
L 497.708142 194.578512 
L 497.888642 194.578512 
L 498.069141 194.578512 
L 498.249641 194.578512 
L 498.43014 194.578512 
L 498.61064 194.578512 
L 498.79114 194.578512 
L 498.971639 194.578512 
L 499.152139 194.578512 
L 499.332638 194.578512 
" style="fill:none;stroke:#e17a00;stroke-linecap:square;stroke-width:2.0;"/>
   </g>
   <g id="line2d_51">
    <path clip-path="url(#p9e22fb6d63)" d="M 499.332638 194.578512 
L 499.513138 195.292562 
L 499.693637 195.292562 
L 499.874137 195.292562 
L 500.054637 195.292562 
L 500.235136 195.292562 
L 500.415636 195.292562 
L 500.596135 195.292562 
L 500.776635 195.292562 
L 500.957135 195.292562 
L 501.137634 195.292562 
L 501.318134 195.292562 
L 501.498633 195.292562 
L 501.679133 195.292562 
L 501.859633 195.292562 
L 502.040132 195.292562 
L 502.220632 196.006612 
L 502.401131 196.006612 
L 502.581631 196.006612 
L 502.76213 196.006612 
L 502.94263 196.720661 
L 503.12313 196.720661 
L 503.303629 196.720661 
L 503.484129 196.720661 
L 503.664628 196.720661 
L 503.845128 196.720661 
L 504.025628 196.720661 
L 504.206127 196.720661 
L 504.386627 196.720661 
L 504.567126 196.720661 
L 504.747626 196.720661 
L 504.928126 196.720661 
L 505.108625 196.720661 
L 505.289125 196.720661 
L 505.469624 196.720661 
L 505.650124 196.720661 
L 505.830624 196.720661 
L 506.011123 196.720661 
L 506.191623 197.434711 
L 506.372122 197.434711 
L 506.552622 197.434711 
L 506.733121 197.434711 
L 506.913621 198.14876 
L 507.094121 198.14876 
L 507.27462 198.14876 
L 507.45512 198.14876 
L 507.635619 198.14876 
L 507.816119 198.86281 
L 507.996619 198.86281 
L 508.177118 198.86281 
L 508.357618 198.86281 
L 508.538117 198.86281 
L 508.718617 198.86281 
L 508.899117 198.86281 
L 509.079616 198.86281 
L 509.260116 198.86281 
L 509.440615 198.86281 
L 509.621115 198.86281 
L 509.801615 198.86281 
L 509.982114 198.86281 
L 510.162614 198.86281 
L 510.343113 198.86281 
L 510.523613 198.86281 
L 510.704112 198.86281 
L 510.884612 198.86281 
L 511.065112 198.86281 
L 511.245611 198.86281 
L 511.426111 198.86281 
L 511.60661 198.86281 
L 511.78711 199.57686 
L 511.96761 199.57686 
L 512.148109 199.57686 
L 512.328609 199.57686 
L 512.509108 199.57686 
L 512.689608 199.57686 
L 512.870108 199.57686 
L 513.050607 199.57686 
L 513.231107 199.57686 
L 513.411606 199.57686 
L 513.592106 199.57686 
L 513.772605 199.57686 
L 513.953105 199.57686 
L 514.133605 199.57686 
L 514.314104 199.57686 
L 514.494604 199.57686 
L 514.675103 199.57686 
L 514.855603 199.57686 
L 515.036103 199.57686 
L 515.216602 199.57686 
L 515.397102 199.57686 
L 515.577601 199.57686 
L 515.758101 199.57686 
L 515.938601 199.57686 
L 516.1191 199.57686 
L 516.2996 199.57686 
L 516.480099 199.57686 
L 516.660599 199.57686 
L 516.841099 199.57686 
L 517.021598 199.57686 
L 517.202098 199.57686 
L 517.382597 199.57686 
L 517.563097 199.57686 
L 517.743596 199.57686 
L 517.924096 199.57686 
L 518.104596 200.290909 
" style="fill:none;stroke:#ea9800;stroke-linecap:square;stroke-width:2.0;"/>
   </g>
   <g id="line2d_52">
    <path clip-path="url(#p9e22fb6d63)" d="M 518.104596 200.290909 
" style="fill:none;stroke:#f1b900;stroke-linecap:square;stroke-width:2.0;"/>
   </g>
   <g id="patch_8">
    <path d="M 315.490909 200.290909 
L 518.4 200.290909 
" style="fill:none;stroke:#000000;stroke-linecap:square;stroke-linejoin:miter;"/>
   </g>
   <g id="patch_9">
    <path d="M 518.4 200.290909 
L 518.4 43.2 
" style="fill:none;stroke:#000000;stroke-linecap:square;stroke-linejoin:miter;"/>
   </g>
   <g id="patch_10">
    <path d="M 315.490909 43.2 
L 518.4 43.2 
" style="fill:none;stroke:#000000;stroke-linecap:square;stroke-linejoin:miter;"/>
   </g>
   <g id="patch_11">
    <path d="M 315.490909 200.290909 
L 315.490909 43.2 
" style="fill:none;stroke:#000000;stroke-linecap:square;stroke-linejoin:miter;"/>
   </g>
   <g id="matplotlib.axis_3">
    <g id="xtick_10">
     <g id="line2d_53">
      <g>
       <use style="stroke:#000000;stroke-width:0.5;" x="315.490909091" xlink:href="#mae4598ee9e" y="200.290909091"/>
      </g>
     </g>
     <g id="line2d_54">
      <g>
       <use style="stroke:#000000;stroke-width:0.5;" x="315.490909091" xlink:href="#mead46afe17" y="43.2"/>
      </g>
     </g>
     <g id="text_19">
      <text style="font-family:Bitstream Vera Sans;font-size:12.0px;font-style:normal;font-weight:400;text-anchor:middle;" transform="rotate(-0.000000, 315.490909, 213.409034)" x="315.490909091" y="213.409034091">0</text>
     </g>
    </g>
    <g id="xtick_11">
     <g id="line2d_55">
      <g>
       <use style="stroke:#000000;stroke-width:0.5;" x="348.218181818" xlink:href="#mae4598ee9e" y="200.290909091"/>
      </g>
     </g>
     <g id="line2d_56">
      <g>
       <use style="stroke:#000000;stroke-width:0.5;" x="348.218181818" xlink:href="#mead46afe17" y="43.2"/>
      </g>
     </g>
     <g id="text_20">
      <text style="font-family:Bitstream Vera Sans;font-size:12.0px;font-style:normal;font-weight:400;text-anchor:middle;" transform="rotate(-0.000000, 348.218182, 213.409034)" x="348.218181818" y="213.409034091">5</text>
     </g>
    </g>
    <g id="xtick_12">
     <g id="line2d_57">
      <g>
       <use style="stroke:#000000;stroke-width:0.5;" x="380.945454545" xlink:href="#mae4598ee9e" y="200.290909091"/>
      </g>
     </g>
     <g id="line2d_58">
      <g>
       <use style="stroke:#000000;stroke-width:0.5;" x="380.945454545" xlink:href="#mead46afe17" y="43.2"/>
      </g>
     </g>
     <g id="text_21">
      <text style="font-family:Bitstream Vera Sans;font-size:12.0px;font-style:normal;font-weight:400;text-anchor:middle;" transform="rotate(-0.000000, 380.945455, 213.409034)" x="380.945454545" y="213.409034091">10</text>
     </g>
    </g>
    <g id="xtick_13">
     <g id="line2d_59">
      <g>
       <use style="stroke:#000000;stroke-width:0.5;" x="413.672727273" xlink:href="#mae4598ee9e" y="200.290909091"/>
      </g>
     </g>
     <g id="line2d_60">
      <g>
       <use style="stroke:#000000;stroke-width:0.5;" x="413.672727273" xlink:href="#mead46afe17" y="43.2"/>
      </g>
     </g>
     <g id="text_22">
      <text style="font-family:Bitstream Vera Sans;font-size:12.0px;font-style:normal;font-weight:400;text-anchor:middle;" transform="rotate(-0.000000, 413.672727, 213.409034)" x="413.672727273" y="213.409034091">15</text>
     </g>
    </g>
    <g id="xtick_14">
     <g id="line2d_61">
      <g>
       <use style="stroke:#000000;stroke-width:0.5;" x="446.4" xlink:href="#mae4598ee9e" y="200.290909091"/>
      </g>
     </g>
     <g id="line2d_62">
      <g>
       <use style="stroke:#000000;stroke-width:0.5;" x="446.4" xlink:href="#mead46afe17" y="43.2"/>
      </g>
     </g>
     <g id="text_23">
      <text style="font-family:Bitstream Vera Sans;font-size:12.0px;font-style:normal;font-weight:400;text-anchor:middle;" transform="rotate(-0.000000, 446.400000, 213.409034)" x="446.4" y="213.409034091">20</text>
     </g>
    </g>
    <g id="xtick_15">
     <g id="line2d_63">
      <g>
       <use style="stroke:#000000;stroke-width:0.5;" x="479.127272727" xlink:href="#mae4598ee9e" y="200.290909091"/>
      </g>
     </g>
     <g id="line2d_64">
      <g>
       <use style="stroke:#000000;stroke-width:0.5;" x="479.127272727" xlink:href="#mead46afe17" y="43.2"/>
      </g>
     </g>
     <g id="text_24">
      <text style="font-family:Bitstream Vera Sans;font-size:12.0px;font-style:normal;font-weight:400;text-anchor:middle;" transform="rotate(-0.000000, 479.127273, 213.409034)" x="479.127272727" y="213.409034091">25</text>
     </g>
    </g>
    <g id="xtick_16">
     <g id="line2d_65">
      <g>
       <use style="stroke:#000000;stroke-width:0.5;" x="511.854545455" xlink:href="#mae4598ee9e" y="200.290909091"/>
      </g>
     </g>
     <g id="line2d_66">
      <g>
       <use style="stroke:#000000;stroke-width:0.5;" x="511.854545455" xlink:href="#mead46afe17" y="43.2"/>
      </g>
     </g>
     <g id="text_25">
      <text style="font-family:Bitstream Vera Sans;font-size:12.0px;font-style:normal;font-weight:400;text-anchor:middle;" transform="rotate(-0.000000, 511.854545, 213.409034)" x="511.854545455" y="213.409034091">30</text>
     </g>
    </g>
    <g id="text_26">
     <text style="font-family:Bitstream Vera Sans;font-size:12.0px;font-style:normal;font-weight:400;text-anchor:middle;" transform="rotate(-0.000000, 416.945455, 230.022784)" x="416.945454545" y="230.022784091">Days Post-Maturity</text>
    </g>
   </g>
   <g id="matplotlib.axis_4">
    <g id="ytick_7">
     <g id="line2d_67">
      <g>
       <use style="stroke:#000000;stroke-width:0.5;" x="315.490909091" xlink:href="#mda39fc7fe4" y="200.290909091"/>
      </g>
     </g>
     <g id="line2d_68">
      <g>
       <use style="stroke:#000000;stroke-width:0.5;" x="518.4" xlink:href="#m4fa8c1c345" y="200.290909091"/>
      </g>
     </g>
     <g id="text_27">
      <text style="font-family:Bitstream Vera Sans;font-size:12.0px;font-style:normal;font-weight:400;text-anchor:end;" transform="rotate(-0.000000, 311.490909, 203.602159)" x="311.490909091" y="203.602159091">0.0</text>
     </g>
    </g>
    <g id="ytick_8">
     <g id="line2d_69">
      <g>
       <use style="stroke:#000000;stroke-width:0.5;" x="315.490909091" xlink:href="#mda39fc7fe4" y="171.72892562"/>
      </g>
     </g>
     <g id="line2d_70">
      <g>
       <use style="stroke:#000000;stroke-width:0.5;" x="518.4" xlink:href="#m4fa8c1c345" y="171.72892562"/>
      </g>
     </g>
     <g id="text_28">
      <text style="font-family:Bitstream Vera Sans;font-size:12.0px;font-style:normal;font-weight:400;text-anchor:end;" transform="rotate(-0.000000, 311.490909, 175.040176)" x="311.490909091" y="175.04017562">0.2</text>
     </g>
    </g>
    <g id="ytick_9">
     <g id="line2d_71">
      <g>
       <use style="stroke:#000000;stroke-width:0.5;" x="315.490909091" xlink:href="#mda39fc7fe4" y="143.166942149"/>
      </g>
     </g>
     <g id="line2d_72">
      <g>
       <use style="stroke:#000000;stroke-width:0.5;" x="518.4" xlink:href="#m4fa8c1c345" y="143.166942149"/>
      </g>
     </g>
     <g id="text_29">
      <text style="font-family:Bitstream Vera Sans;font-size:12.0px;font-style:normal;font-weight:400;text-anchor:end;" transform="rotate(-0.000000, 311.490909, 146.478192)" x="311.490909091" y="146.478192149">0.4</text>
     </g>
    </g>
    <g id="ytick_10">
     <g id="line2d_73">
      <g>
       <use style="stroke:#000000;stroke-width:0.5;" x="315.490909091" xlink:href="#mda39fc7fe4" y="114.604958678"/>
      </g>
     </g>
     <g id="line2d_74">
      <g>
       <use style="stroke:#000000;stroke-width:0.5;" x="518.4" xlink:href="#m4fa8c1c345" y="114.604958678"/>
      </g>
     </g>
     <g id="text_30">
      <text style="font-family:Bitstream Vera Sans;font-size:12.0px;font-style:normal;font-weight:400;text-anchor:end;" transform="rotate(-0.000000, 311.490909, 117.916209)" x="311.490909091" y="117.916208678">0.6</text>
     </g>
    </g>
    <g id="ytick_11">
     <g id="line2d_75">
      <g>
       <use style="stroke:#000000;stroke-width:0.5;" x="315.490909091" xlink:href="#mda39fc7fe4" y="86.0429752066"/>
      </g>
     </g>
     <g id="line2d_76">
      <g>
       <use style="stroke:#000000;stroke-width:0.5;" x="518.4" xlink:href="#m4fa8c1c345" y="86.0429752066"/>
      </g>
     </g>
     <g id="text_31">
      <text style="font-family:Bitstream Vera Sans;font-size:12.0px;font-style:normal;font-weight:400;text-anchor:end;" transform="rotate(-0.000000, 311.490909, 89.354225)" x="311.490909091" y="89.3542252066">0.8</text>
     </g>
    </g>
    <g id="ytick_12">
     <g id="line2d_77">
      <g>
       <use style="stroke:#000000;stroke-width:0.5;" x="315.490909091" xlink:href="#mda39fc7fe4" y="57.4809917355"/>
      </g>
     </g>
     <g id="line2d_78">
      <g>
       <use style="stroke:#000000;stroke-width:0.5;" x="518.4" xlink:href="#m4fa8c1c345" y="57.4809917355"/>
      </g>
     </g>
     <g id="text_32">
      <text style="font-family:Bitstream Vera Sans;font-size:12.0px;font-style:normal;font-weight:400;text-anchor:end;" transform="rotate(-0.000000, 311.490909, 60.792242)" x="311.490909091" y="60.7922417355">1.0</text>
     </g>
    </g>
    <g id="text_33">
     <text style="font-family:Bitstream Vera Sans;font-size:12.0px;font-style:normal;font-weight:400;text-anchor:middle;" transform="rotate(-90.000000, 284.911534, 121.745455)" x="284.911534091" y="121.745454545">% Surviving</text>
    </g>
   </g>
   <g id="text_34">
    <text style="font-family:Bitstream Vera Sans;font-size:14.399999999999999px;font-style:normal;font-weight:400;text-anchor:middle;" transform="rotate(-0.000000, 416.945455, 38.200000)" x="416.945454545" y="38.2">spe-9(hc88) Adult Survival in Corrals</text>
   </g>
  </g>
  <g id="axes_3">
   <g id="patch_12">
    <path d="M 72 388.8 
L 274.909091 388.8 
L 274.909091 231.709091 
L 72 231.709091 
z
" style="fill:#ffffff;"/>
   </g>
   <g id="patch_13">
    <path clip-path="url(#pe32bffe704)" d="M 97.363636 388.8 
L 122.727273 388.8 
L 122.727273 383.04 
L 97.363636 383.04 
z
" style="fill:#7302f5;opacity:0.75;"/>
   </g>
   <g id="patch_14">
    <path clip-path="url(#pe32bffe704)" d="M 122.727273 388.8 
L 148.090909 388.8 
L 148.090909 371.52 
L 122.727273 371.52 
z
" style="fill:#8e07eb;opacity:0.75;"/>
   </g>
   <g id="patch_15">
    <path clip-path="url(#pe32bffe704)" d="M 148.090909 388.8 
L 173.454545 388.8 
L 173.454545 345.338182 
L 148.090909 345.338182 
z
" style="fill:#a9155c;opacity:0.75;"/>
   </g>
   <g id="patch_16">
    <path clip-path="url(#pe32bffe704)" d="M 173.454545 388.8 
L 198.818182 388.8 
L 198.818182 277.789091 
L 173.454545 277.789091 
z
" style="fill:#bf2d00;opacity:0.75;"/>
   </g>
   <g id="patch_17">
    <path clip-path="url(#pe32bffe704)" d="M 198.818182 388.8 
L 224.181818 388.8 
L 224.181818 244.8 
L 198.818182 244.8 
z
" style="fill:#d14e00;opacity:0.75;"/>
   </g>
   <g id="patch_18">
    <path clip-path="url(#pe32bffe704)" d="M 224.181818 388.8 
L 249.545455 388.8 
L 249.545455 336.96 
L 224.181818 336.96 
z
" style="fill:#e27c00;opacity:0.75;"/>
   </g>
   <g id="patch_19">
    <path clip-path="url(#pe32bffe704)" d="M 249.545455 388.8 
L 274.909091 388.8 
L 274.909091 377.803636 
L 249.545455 377.803636 
z
" style="fill:#f1b900;opacity:0.75;"/>
   </g>
   <g id="line2d_79">
    <path clip-path="url(#pe32bffe704)" d="M 72 388.798805 
L 84.235724 388.695068 
L 89.333942 388.444629 
L 93.412517 388.042311 
L 97.491092 387.398802 
L 100.550023 386.713088 
L 103.608954 385.805357 
L 106.667885 384.63959 
L 109.726816 383.214882 
L 113.805391 381.006435 
L 120.942896 377.01667 
L 124.001827 375.593435 
L 127.060758 374.495494 
L 130.119689 373.719779 
L 135.217908 372.606934 
L 137.257195 371.917246 
L 139.296482 370.921445 
L 141.33577 369.548382 
L 143.375057 367.776491 
L 145.414344 365.633683 
L 147.453632 363.184816 
L 150.512563 359.118367 
L 155.610781 351.871949 
L 160.709 344.293652 
L 163.767931 339.261605 
L 165.807218 335.506171 
L 167.846505 331.331932 
L 169.885793 326.696127 
L 171.92508 321.599216 
L 174.984011 313.163844 
L 178.042942 303.919052 
L 182.121517 290.665826 
L 187.219735 273.969646 
L 189.259022 267.890774 
L 191.29831 262.471771 
L 193.337597 257.851278 
L 195.376884 254.079437 
L 197.416172 251.118898 
L 199.455459 248.867642 
L 201.494746 247.196556 
L 203.534034 245.993928 
L 205.573321 245.209169 
L 206.592965 244.983167 
L 207.612608 244.886982 
L 208.632252 244.943436 
L 209.651896 245.181517 
L 210.67154 245.635125 
L 211.691183 246.341342 
L 212.710827 247.33831 
L 213.730471 248.662852 
L 214.750114 250.348026 
L 215.769758 252.420774 
L 216.789402 254.899858 
L 217.809045 257.794222 
L 218.828689 261.101876 
L 220.867976 268.891776 
L 222.907264 278.028425 
L 225.966195 293.361029 
L 230.044769 314.09168 
L 232.084057 323.408975 
L 234.123344 331.501249 
L 236.162631 338.180712 
L 237.182275 340.986179 
L 238.201919 343.457267 
L 239.221562 345.623443 
L 241.26085 349.197573 
L 243.300137 352.063529 
L 251.457286 362.397509 
L 258.594792 372.235261 
L 261.653723 375.883655 
L 264.712654 379.066167 
L 267.771585 381.822048 
L 269.810873 383.418529 
L 271.85016 384.801684 
L 273.889447 385.952895 
L 274.909091 386.438703 
L 274.909091 386.438703 
" style="fill:none;stroke:#000000;stroke-linecap:square;"/>
   </g>
   <g id="patch_20">
    <path d="M 72 388.8 
L 274.909091 388.8 
" style="fill:none;stroke:#000000;stroke-linecap:square;stroke-linejoin:miter;"/>
   </g>
   <g id="patch_21">
    <path d="M 274.909091 388.8 
L 274.909091 231.709091 
" style="fill:none;stroke:#000000;stroke-linecap:square;stroke-linejoin:miter;"/>
   </g>
   <g id="patch_22">
    <path d="M 72 231.709091 
L 274.909091 231.709091 
" style="fill:none;stroke:#000000;stroke-linecap:square;stroke-linejoin:miter;"/>
   </g>
   <g id="patch_23">
    <path d="M 72 388.8 
L 72 231.709091 
" style="fill:none;stroke:#000000;stroke-linecap:square;stroke-linejoin:miter;"/>
   </g>
   <g id="matplotlib.axis_5">
    <g id="xtick_17">
     <g id="line2d_80">
      <g>
       <use style="stroke:#000000;stroke-width:0.5;" x="72.0" xlink:href="#mae4598ee9e" y="388.8"/>
      </g>
     </g>
     <g id="line2d_81">
      <g>
       <use style="stroke:#000000;stroke-width:0.5;" x="72.0" xlink:href="#mead46afe17" y="231.709090909"/>
      </g>
     </g>
     <g id="text_35">
      <text style="font-family:Bitstream Vera Sans;font-size:12.0px;font-style:normal;font-weight:400;text-anchor:middle;" transform="rotate(-0.000000, 72.000000, 401.918125)" x="72.0" y="401.918125">0</text>
     </g>
    </g>
    <g id="xtick_18">
     <g id="line2d_82">
      <g>
       <use style="stroke:#000000;stroke-width:0.5;" x="97.3636363636" xlink:href="#mae4598ee9e" y="388.8"/>
      </g>
     </g>
     <g id="line2d_83">
      <g>
       <use style="stroke:#000000;stroke-width:0.5;" x="97.3636363636" xlink:href="#mead46afe17" y="231.709090909"/>
      </g>
     </g>
     <g id="text_36">
      <text style="font-family:Bitstream Vera Sans;font-size:12.0px;font-style:normal;font-weight:400;text-anchor:middle;" transform="rotate(-0.000000, 97.363636, 401.918125)" x="97.3636363636" y="401.918125">2</text>
     </g>
    </g>
    <g id="xtick_19">
     <g id="line2d_84">
      <g>
       <use style="stroke:#000000;stroke-width:0.5;" x="122.727272727" xlink:href="#mae4598ee9e" y="388.8"/>
      </g>
     </g>
     <g id="line2d_85">
      <g>
       <use style="stroke:#000000;stroke-width:0.5;" x="122.727272727" xlink:href="#mead46afe17" y="231.709090909"/>
      </g>
     </g>
     <g id="text_37">
      <text style="font-family:Bitstream Vera Sans;font-size:12.0px;font-style:normal;font-weight:400;text-anchor:middle;" transform="rotate(-0.000000, 122.727273, 401.918125)" x="122.727272727" y="401.918125">4</text>
     </g>
    </g>
    <g id="xtick_20">
     <g id="line2d_86">
      <g>
       <use style="stroke:#000000;stroke-width:0.5;" x="148.090909091" xlink:href="#mae4598ee9e" y="388.8"/>
      </g>
     </g>
     <g id="line2d_87">
      <g>
       <use style="stroke:#000000;stroke-width:0.5;" x="148.090909091" xlink:href="#mead46afe17" y="231.709090909"/>
      </g>
     </g>
     <g id="text_38">
      <text style="font-family:Bitstream Vera Sans;font-size:12.0px;font-style:normal;font-weight:400;text-anchor:middle;" transform="rotate(-0.000000, 148.090909, 401.918125)" x="148.090909091" y="401.918125">6</text>
     </g>
    </g>
    <g id="xtick_21">
     <g id="line2d_88">
      <g>
       <use style="stroke:#000000;stroke-width:0.5;" x="173.454545455" xlink:href="#mae4598ee9e" y="388.8"/>
      </g>
     </g>
     <g id="line2d_89">
      <g>
       <use style="stroke:#000000;stroke-width:0.5;" x="173.454545455" xlink:href="#mead46afe17" y="231.709090909"/>
      </g>
     </g>
     <g id="text_39">
      <text style="font-family:Bitstream Vera Sans;font-size:12.0px;font-style:normal;font-weight:400;text-anchor:middle;" transform="rotate(-0.000000, 173.454545, 401.918125)" x="173.454545455" y="401.918125">8</text>
     </g>
    </g>
    <g id="xtick_22">
     <g id="line2d_90">
      <g>
       <use style="stroke:#000000;stroke-width:0.5;" x="198.818181818" xlink:href="#mae4598ee9e" y="388.8"/>
      </g>
     </g>
     <g id="line2d_91">
      <g>
       <use style="stroke:#000000;stroke-width:0.5;" x="198.818181818" xlink:href="#mead46afe17" y="231.709090909"/>
      </g>
     </g>
     <g id="text_40">
      <text style="font-family:Bitstream Vera Sans;font-size:12.0px;font-style:normal;font-weight:400;text-anchor:middle;" transform="rotate(-0.000000, 198.818182, 401.918125)" x="198.818181818" y="401.918125">10</text>
     </g>
    </g>
    <g id="xtick_23">
     <g id="line2d_92">
      <g>
       <use style="stroke:#000000;stroke-width:0.5;" x="224.181818182" xlink:href="#mae4598ee9e" y="388.8"/>
      </g>
     </g>
     <g id="line2d_93">
      <g>
       <use style="stroke:#000000;stroke-width:0.5;" x="224.181818182" xlink:href="#mead46afe17" y="231.709090909"/>
      </g>
     </g>
     <g id="text_41">
      <text style="font-family:Bitstream Vera Sans;font-size:12.0px;font-style:normal;font-weight:400;text-anchor:middle;" transform="rotate(-0.000000, 224.181818, 401.918125)" x="224.181818182" y="401.918125">12</text>
     </g>
    </g>
    <g id="xtick_24">
     <g id="line2d_94">
      <g>
       <use style="stroke:#000000;stroke-width:0.5;" x="249.545454545" xlink:href="#mae4598ee9e" y="388.8"/>
      </g>
     </g>
     <g id="line2d_95">
      <g>
       <use style="stroke:#000000;stroke-width:0.5;" x="249.545454545" xlink:href="#mead46afe17" y="231.709090909"/>
      </g>
     </g>
     <g id="text_42">
      <text style="font-family:Bitstream Vera Sans;font-size:12.0px;font-style:normal;font-weight:400;text-anchor:middle;" transform="rotate(-0.000000, 249.545455, 401.918125)" x="249.545454545" y="401.918125">14</text>
     </g>
    </g>
    <g id="xtick_25">
     <g id="line2d_96">
      <g>
       <use style="stroke:#000000;stroke-width:0.5;" x="274.909090909" xlink:href="#mae4598ee9e" y="388.8"/>
      </g>
     </g>
     <g id="line2d_97">
      <g>
       <use style="stroke:#000000;stroke-width:0.5;" x="274.909090909" xlink:href="#mead46afe17" y="231.709090909"/>
      </g>
     </g>
     <g id="text_43">
      <text style="font-family:Bitstream Vera Sans;font-size:12.0px;font-style:normal;font-weight:400;text-anchor:middle;" transform="rotate(-0.000000, 274.909091, 401.918125)" x="274.909090909" y="401.918125">16</text>
     </g>
    </g>
    <g id="text_44">
     <text style="font-family:Bitstream Vera Sans;font-size:12.0px;font-style:normal;font-weight:400;text-anchor:middle;" transform="rotate(-0.000000, 173.454545, 418.531875)" x="173.454545455" y="418.531875">Days Post-Maturity</text>
    </g>
   </g>
   <g id="matplotlib.axis_6">
    <g id="ytick_13">
     <g id="line2d_98">
      <g>
       <use style="stroke:#000000;stroke-width:0.5;" x="72.0" xlink:href="#mda39fc7fe4" y="388.8"/>
      </g>
     </g>
     <g id="line2d_99">
      <g>
       <use style="stroke:#000000;stroke-width:0.5;" x="274.909090909" xlink:href="#m4fa8c1c345" y="388.8"/>
      </g>
     </g>
     <g id="text_45">
      <text style="font-family:Bitstream Vera Sans;font-size:12.0px;font-style:normal;font-weight:400;text-anchor:end;" transform="rotate(-0.000000, 68.000000, 392.111250)" x="68.0" y="392.11125">0</text>
     </g>
    </g>
    <g id="ytick_14">
     <g id="line2d_100">
      <g>
       <use style="stroke:#000000;stroke-width:0.5;" x="72.0" xlink:href="#mda39fc7fe4" y="362.618181818"/>
      </g>
     </g>
     <g id="line2d_101">
      <g>
       <use style="stroke:#000000;stroke-width:0.5;" x="274.909090909" xlink:href="#m4fa8c1c345" y="362.618181818"/>
      </g>
     </g>
     <g id="text_46">
      <text style="font-family:Bitstream Vera Sans;font-size:12.0px;font-style:normal;font-weight:400;text-anchor:end;" transform="rotate(-0.000000, 68.000000, 365.929432)" x="68.0" y="365.929431818">50</text>
     </g>
    </g>
    <g id="ytick_15">
     <g id="line2d_102">
      <g>
       <use style="stroke:#000000;stroke-width:0.5;" x="72.0" xlink:href="#mda39fc7fe4" y="336.436363636"/>
      </g>
     </g>
     <g id="line2d_103">
      <g>
       <use style="stroke:#000000;stroke-width:0.5;" x="274.909090909" xlink:href="#m4fa8c1c345" y="336.436363636"/>
      </g>
     </g>
     <g id="text_47">
      <text style="font-family:Bitstream Vera Sans;font-size:12.0px;font-style:normal;font-weight:400;text-anchor:end;" transform="rotate(-0.000000, 68.000000, 339.747614)" x="68.0" y="339.747613636">100</text>
     </g>
    </g>
    <g id="ytick_16">
     <g id="line2d_104">
      <g>
       <use style="stroke:#000000;stroke-width:0.5;" x="72.0" xlink:href="#mda39fc7fe4" y="310.254545455"/>
      </g>
     </g>
     <g id="line2d_105">
      <g>
       <use style="stroke:#000000;stroke-width:0.5;" x="274.909090909" xlink:href="#m4fa8c1c345" y="310.254545455"/>
      </g>
     </g>
     <g id="text_48">
      <text style="font-family:Bitstream Vera Sans;font-size:12.0px;font-style:normal;font-weight:400;text-anchor:end;" transform="rotate(-0.000000, 68.000000, 313.565795)" x="68.0" y="313.565795455">150</text>
     </g>
    </g>
    <g id="ytick_17">
     <g id="line2d_106">
      <g>
       <use style="stroke:#000000;stroke-width:0.5;" x="72.0" xlink:href="#mda39fc7fe4" y="284.072727273"/>
      </g>
     </g>
     <g id="line2d_107">
      <g>
       <use style="stroke:#000000;stroke-width:0.5;" x="274.909090909" xlink:href="#m4fa8c1c345" y="284.072727273"/>
      </g>
     </g>
     <g id="text_49">
      <text style="font-family:Bitstream Vera Sans;font-size:12.0px;font-style:normal;font-weight:400;text-anchor:end;" transform="rotate(-0.000000, 68.000000, 287.383977)" x="68.0" y="287.383977273">200</text>
     </g>
    </g>
    <g id="ytick_18">
     <g id="line2d_108">
      <g>
       <use style="stroke:#000000;stroke-width:0.5;" x="72.0" xlink:href="#mda39fc7fe4" y="257.890909091"/>
      </g>
     </g>
     <g id="line2d_109">
      <g>
       <use style="stroke:#000000;stroke-width:0.5;" x="274.909090909" xlink:href="#m4fa8c1c345" y="257.890909091"/>
      </g>
     </g>
     <g id="text_50">
      <text style="font-family:Bitstream Vera Sans;font-size:12.0px;font-style:normal;font-weight:400;text-anchor:end;" transform="rotate(-0.000000, 68.000000, 261.202159)" x="68.0" y="261.202159091">250</text>
     </g>
    </g>
    <g id="ytick_19">
     <g id="line2d_110">
      <g>
       <use style="stroke:#000000;stroke-width:0.5;" x="72.0" xlink:href="#mda39fc7fe4" y="231.709090909"/>
      </g>
     </g>
     <g id="line2d_111">
      <g>
       <use style="stroke:#000000;stroke-width:0.5;" x="274.909090909" xlink:href="#m4fa8c1c345" y="231.709090909"/>
      </g>
     </g>
     <g id="text_51">
      <text style="font-family:Bitstream Vera Sans;font-size:12.0px;font-style:normal;font-weight:400;text-anchor:end;" transform="rotate(-0.000000, 68.000000, 235.020341)" x="68.0" y="235.020340909">300</text>
     </g>
    </g>
    <g id="text_52">
     <text style="font-family:Bitstream Vera Sans;font-size:12.0px;font-style:normal;font-weight:400;text-anchor:middle;" transform="rotate(-90.000000, 37.599375, 310.254545)" x="37.599375" y="310.254545455">Number of Worms</text>
    </g>
   </g>
   <g id="text_53">
    <text style="font-family:Bitstream Vera Sans;font-size:14.399999999999999px;font-style:normal;font-weight:400;text-anchor:middle;" transform="rotate(-0.000000, 173.454545, 226.709091)" x="173.454545455" y="226.709090909">spe-9(hc88) Adult Lifespans in Corrals</text>
   </g>
  </g>
  <g id="axes_4">
   <g id="patch_24">
    <path d="M 315.490909 388.8 
L 518.4 388.8 
L 518.4 231.709091 
L 315.490909 231.709091 
z
" style="fill:#ffffff;"/>
   </g>
   <g id="patch_25">
    <path clip-path="url(#pa4589bd192)" d="M 332.883117 388.8 
L 338.680519 388.8 
L 338.680519 388.276364 
L 332.883117 388.276364 
z
" style="fill:#4f0093;opacity:0.75;"/>
   </g>
   <g id="patch_26">
    <path clip-path="url(#pa4589bd192)" d="M 361.87013 388.8 
L 373.464935 388.8 
L 373.464935 387.229091 
L 361.87013 387.229091 
z
" style="fill:#8104fe;opacity:0.75;"/>
   </g>
   <g id="patch_27">
    <path clip-path="url(#pa4589bd192)" d="M 373.464935 388.8 
L 385.05974 388.8 
L 385.05974 386.181818 
L 373.464935 386.181818 
z
" style="fill:#8f08e8;opacity:0.75;"/>
   </g>
   <g id="patch_28">
    <path clip-path="url(#pa4589bd192)" d="M 385.05974 388.8 
L 396.654545 388.8 
L 396.654545 381.469091 
L 385.05974 381.469091 
z
" style="fill:#9c0db4;opacity:0.75;"/>
   </g>
   <g id="patch_29">
    <path clip-path="url(#pa4589bd192)" d="M 396.654545 388.8 
L 408.249351 388.8 
L 408.249351 375.185455 
L 396.654545 375.185455 
z
" style="fill:#a81465;opacity:0.75;"/>
   </g>
   <g id="patch_30">
    <path clip-path="url(#pa4589bd192)" d="M 408.249351 388.8 
L 419.844156 388.8 
L 419.844156 376.756364 
L 408.249351 376.756364 
z
" style="fill:#b31f03;opacity:0.75;"/>
   </g>
   <g id="patch_31">
    <path clip-path="url(#pa4589bd192)" d="M 419.844156 388.8 
L 431.438961 388.8 
L 431.438961 375.709091 
L 419.844156 375.709091 
z
" style="fill:#be2b00;opacity:0.75;"/>
   </g>
   <g id="patch_32">
    <path clip-path="url(#pa4589bd192)" d="M 431.438961 388.8 
L 443.033766 388.8 
L 443.033766 373.090909 
L 431.438961 373.090909 
z
" style="fill:#c63800;opacity:0.75;"/>
   </g>
   <g id="patch_33">
    <path clip-path="url(#pa4589bd192)" d="M 443.033766 388.8 
L 454.628571 388.8 
L 454.628571 374.138182 
L 443.033766 374.138182 
z
" style="fill:#d04b00;opacity:0.75;"/>
   </g>
   <g id="patch_34">
    <path clip-path="url(#pa4589bd192)" d="M 454.628571 388.8 
L 466.223377 388.8 
L 466.223377 376.756364 
L 454.628571 376.756364 
z
" style="fill:#d96200;opacity:0.75;"/>
   </g>
   <g id="patch_35">
    <path clip-path="url(#pa4589bd192)" d="M 466.223377 388.8 
L 477.818182 388.8 
L 477.818182 381.469091 
L 466.223377 381.469091 
z
" style="fill:#e17a00;opacity:0.75;"/>
   </g>
   <g id="patch_36">
    <path clip-path="url(#pa4589bd192)" d="M 477.818182 388.8 
L 489.412987 388.8 
L 489.412987 385.134545 
L 477.818182 385.134545 
z
" style="fill:#ea9800;opacity:0.75;"/>
   </g>
   <g id="patch_37">
    <path clip-path="url(#pa4589bd192)" d="M 489.412987 388.8 
L 495.21039 388.8 
L 495.21039 388.276364 
L 489.412987 388.276364 
z
" style="fill:#f1b900;opacity:0.75;"/>
   </g>
   <g id="line2d_112">
    <path clip-path="url(#pa4589bd192)" d="M 315.490909 388.764581 
L 353.421654 388.393656 
L 359.743444 387.996831 
L 365.162122 387.45409 
L 370.5808 386.688513 
L 375.096365 385.829162 
L 379.61193 384.731429 
L 384.127495 383.397612 
L 391.352398 380.953446 
L 396.771076 379.219856 
L 400.383528 378.305785 
L 403.99598 377.643524 
L 408.511545 377.095431 
L 417.542674 376.09085 
L 423.864465 375.065042 
L 429.283143 374.252785 
L 432.895595 373.942854 
L 436.508047 373.889061 
L 440.120499 374.077429 
L 444.636063 374.568131 
L 450.054741 375.401312 
L 455.473419 376.441764 
L 460.892097 377.702579 
L 466.310775 379.212132 
L 472.632565 381.258261 
L 482.566808 384.537473 
L 487.082373 385.780156 
L 491.597938 386.785757 
L 495.21039 387.416515 
L 495.21039 387.416515 
" style="fill:none;stroke:#000000;stroke-linecap:square;"/>
   </g>
   <g id="patch_38">
    <path d="M 315.490909 388.8 
L 518.4 388.8 
" style="fill:none;stroke:#000000;stroke-linecap:square;stroke-linejoin:miter;"/>
   </g>
   <g id="patch_39">
    <path d="M 518.4 388.8 
L 518.4 231.709091 
" style="fill:none;stroke:#000000;stroke-linecap:square;stroke-linejoin:miter;"/>
   </g>
   <g id="patch_40">
    <path d="M 315.490909 231.709091 
L 518.4 231.709091 
" style="fill:none;stroke:#000000;stroke-linecap:square;stroke-linejoin:miter;"/>
   </g>
   <g id="patch_41">
    <path d="M 315.490909 388.8 
L 315.490909 231.709091 
" style="fill:none;stroke:#000000;stroke-linecap:square;stroke-linejoin:miter;"/>
   </g>
   <g id="matplotlib.axis_7">
    <g id="xtick_26">
     <g id="line2d_113">
      <g>
       <use style="stroke:#000000;stroke-width:0.5;" x="315.490909091" xlink:href="#mae4598ee9e" y="388.8"/>
      </g>
     </g>
     <g id="line2d_114">
      <g>
       <use style="stroke:#000000;stroke-width:0.5;" x="315.490909091" xlink:href="#mead46afe17" y="231.709090909"/>
      </g>
     </g>
     <g id="text_54">
      <text style="font-family:Bitstream Vera Sans;font-size:12.0px;font-style:normal;font-weight:400;text-anchor:middle;" transform="rotate(-0.000000, 315.490909, 401.918125)" x="315.490909091" y="401.918125">0</text>
     </g>
    </g>
    <g id="xtick_27">
     <g id="line2d_115">
      <g>
       <use style="stroke:#000000;stroke-width:0.5;" x="344.477922078" xlink:href="#mae4598ee9e" y="388.8"/>
      </g>
     </g>
     <g id="line2d_116">
      <g>
       <use style="stroke:#000000;stroke-width:0.5;" x="344.477922078" xlink:href="#mead46afe17" y="231.709090909"/>
      </g>
     </g>
     <g id="text_55">
      <text style="font-family:Bitstream Vera Sans;font-size:12.0px;font-style:normal;font-weight:400;text-anchor:middle;" transform="rotate(-0.000000, 344.477922, 401.918125)" x="344.477922078" y="401.918125">5</text>
     </g>
    </g>
    <g id="xtick_28">
     <g id="line2d_117">
      <g>
       <use style="stroke:#000000;stroke-width:0.5;" x="373.464935065" xlink:href="#mae4598ee9e" y="388.8"/>
      </g>
     </g>
     <g id="line2d_118">
      <g>
       <use style="stroke:#000000;stroke-width:0.5;" x="373.464935065" xlink:href="#mead46afe17" y="231.709090909"/>
      </g>
     </g>
     <g id="text_56">
      <text style="font-family:Bitstream Vera Sans;font-size:12.0px;font-style:normal;font-weight:400;text-anchor:middle;" transform="rotate(-0.000000, 373.464935, 401.918125)" x="373.464935065" y="401.918125">10</text>
     </g>
    </g>
    <g id="xtick_29">
     <g id="line2d_119">
      <g>
       <use style="stroke:#000000;stroke-width:0.5;" x="402.451948052" xlink:href="#mae4598ee9e" y="388.8"/>
      </g>
     </g>
     <g id="line2d_120">
      <g>
       <use style="stroke:#000000;stroke-width:0.5;" x="402.451948052" xlink:href="#mead46afe17" y="231.709090909"/>
      </g>
     </g>
     <g id="text_57">
      <text style="font-family:Bitstream Vera Sans;font-size:12.0px;font-style:normal;font-weight:400;text-anchor:middle;" transform="rotate(-0.000000, 402.451948, 401.918125)" x="402.451948052" y="401.918125">15</text>
     </g>
    </g>
    <g id="xtick_30">
     <g id="line2d_121">
      <g>
       <use style="stroke:#000000;stroke-width:0.5;" x="431.438961039" xlink:href="#mae4598ee9e" y="388.8"/>
      </g>
     </g>
     <g id="line2d_122">
      <g>
       <use style="stroke:#000000;stroke-width:0.5;" x="431.438961039" xlink:href="#mead46afe17" y="231.709090909"/>
      </g>
     </g>
     <g id="text_58">
      <text style="font-family:Bitstream Vera Sans;font-size:12.0px;font-style:normal;font-weight:400;text-anchor:middle;" transform="rotate(-0.000000, 431.438961, 401.918125)" x="431.438961039" y="401.918125">20</text>
     </g>
    </g>
    <g id="xtick_31">
     <g id="line2d_123">
      <g>
       <use style="stroke:#000000;stroke-width:0.5;" x="460.425974026" xlink:href="#mae4598ee9e" y="388.8"/>
      </g>
     </g>
     <g id="line2d_124">
      <g>
       <use style="stroke:#000000;stroke-width:0.5;" x="460.425974026" xlink:href="#mead46afe17" y="231.709090909"/>
      </g>
     </g>
     <g id="text_59">
      <text style="font-family:Bitstream Vera Sans;font-size:12.0px;font-style:normal;font-weight:400;text-anchor:middle;" transform="rotate(-0.000000, 460.425974, 401.918125)" x="460.425974026" y="401.918125">25</text>
     </g>
    </g>
    <g id="xtick_32">
     <g id="line2d_125">
      <g>
       <use style="stroke:#000000;stroke-width:0.5;" x="489.412987013" xlink:href="#mae4598ee9e" y="388.8"/>
      </g>
     </g>
     <g id="line2d_126">
      <g>
       <use style="stroke:#000000;stroke-width:0.5;" x="489.412987013" xlink:href="#mead46afe17" y="231.709090909"/>
      </g>
     </g>
     <g id="text_60">
      <text style="font-family:Bitstream Vera Sans;font-size:12.0px;font-style:normal;font-weight:400;text-anchor:middle;" transform="rotate(-0.000000, 489.412987, 401.918125)" x="489.412987013" y="401.918125">30</text>
     </g>
    </g>
    <g id="xtick_33">
     <g id="line2d_127">
      <g>
       <use style="stroke:#000000;stroke-width:0.5;" x="518.4" xlink:href="#mae4598ee9e" y="388.8"/>
      </g>
     </g>
     <g id="line2d_128">
      <g>
       <use style="stroke:#000000;stroke-width:0.5;" x="518.4" xlink:href="#mead46afe17" y="231.709090909"/>
      </g>
     </g>
     <g id="text_61">
      <text style="font-family:Bitstream Vera Sans;font-size:12.0px;font-style:normal;font-weight:400;text-anchor:middle;" transform="rotate(-0.000000, 518.400000, 401.918125)" x="518.4" y="401.918125">35</text>
     </g>
    </g>
    <g id="text_62">
     <text style="font-family:Bitstream Vera Sans;font-size:12.0px;font-style:normal;font-weight:400;text-anchor:middle;" transform="rotate(-0.000000, 416.945455, 418.531875)" x="416.945454545" y="418.531875">Days Post-Maturity</text>
    </g>
   </g>
   <g id="matplotlib.axis_8">
    <g id="ytick_20">
     <g id="line2d_129">
      <g>
       <use style="stroke:#000000;stroke-width:0.5;" x="315.490909091" xlink:href="#mda39fc7fe4" y="388.8"/>
      </g>
     </g>
     <g id="line2d_130">
      <g>
       <use style="stroke:#000000;stroke-width:0.5;" x="518.4" xlink:href="#m4fa8c1c345" y="388.8"/>
      </g>
     </g>
     <g id="text_63">
      <text style="font-family:Bitstream Vera Sans;font-size:12.0px;font-style:normal;font-weight:400;text-anchor:end;" transform="rotate(-0.000000, 311.490909, 392.111250)" x="311.490909091" y="392.11125">0</text>
     </g>
    </g>
    <g id="ytick_21">
     <g id="line2d_131">
      <g>
       <use style="stroke:#000000;stroke-width:0.5;" x="315.490909091" xlink:href="#mda39fc7fe4" y="362.618181818"/>
      </g>
     </g>
     <g id="line2d_132">
      <g>
       <use style="stroke:#000000;stroke-width:0.5;" x="518.4" xlink:href="#m4fa8c1c345" y="362.618181818"/>
      </g>
     </g>
     <g id="text_64">
      <text style="font-family:Bitstream Vera Sans;font-size:12.0px;font-style:normal;font-weight:400;text-anchor:end;" transform="rotate(-0.000000, 311.490909, 365.929432)" x="311.490909091" y="365.929431818">50</text>
     </g>
    </g>
    <g id="ytick_22">
     <g id="line2d_133">
      <g>
       <use style="stroke:#000000;stroke-width:0.5;" x="315.490909091" xlink:href="#mda39fc7fe4" y="336.436363636"/>
      </g>
     </g>
     <g id="line2d_134">
      <g>
       <use style="stroke:#000000;stroke-width:0.5;" x="518.4" xlink:href="#m4fa8c1c345" y="336.436363636"/>
      </g>
     </g>
     <g id="text_65">
      <text style="font-family:Bitstream Vera Sans;font-size:12.0px;font-style:normal;font-weight:400;text-anchor:end;" transform="rotate(-0.000000, 311.490909, 339.747614)" x="311.490909091" y="339.747613636">100</text>
     </g>
    </g>
    <g id="ytick_23">
     <g id="line2d_135">
      <g>
       <use style="stroke:#000000;stroke-width:0.5;" x="315.490909091" xlink:href="#mda39fc7fe4" y="310.254545455"/>
      </g>
     </g>
     <g id="line2d_136">
      <g>
       <use style="stroke:#000000;stroke-width:0.5;" x="518.4" xlink:href="#m4fa8c1c345" y="310.254545455"/>
      </g>
     </g>
     <g id="text_66">
      <text style="font-family:Bitstream Vera Sans;font-size:12.0px;font-style:normal;font-weight:400;text-anchor:end;" transform="rotate(-0.000000, 311.490909, 313.565795)" x="311.490909091" y="313.565795455">150</text>
     </g>
    </g>
    <g id="ytick_24">
     <g id="line2d_137">
      <g>
       <use style="stroke:#000000;stroke-width:0.5;" x="315.490909091" xlink:href="#mda39fc7fe4" y="284.072727273"/>
      </g>
     </g>
     <g id="line2d_138">
      <g>
       <use style="stroke:#000000;stroke-width:0.5;" x="518.4" xlink:href="#m4fa8c1c345" y="284.072727273"/>
      </g>
     </g>
     <g id="text_67">
      <text style="font-family:Bitstream Vera Sans;font-size:12.0px;font-style:normal;font-weight:400;text-anchor:end;" transform="rotate(-0.000000, 311.490909, 287.383977)" x="311.490909091" y="287.383977273">200</text>
     </g>
    </g>
    <g id="ytick_25">
     <g id="line2d_139">
      <g>
       <use style="stroke:#000000;stroke-width:0.5;" x="315.490909091" xlink:href="#mda39fc7fe4" y="257.890909091"/>
      </g>
     </g>
     <g id="line2d_140">
      <g>
       <use style="stroke:#000000;stroke-width:0.5;" x="518.4" xlink:href="#m4fa8c1c345" y="257.890909091"/>
      </g>
     </g>
     <g id="text_68">
      <text style="font-family:Bitstream Vera Sans;font-size:12.0px;font-style:normal;font-weight:400;text-anchor:end;" transform="rotate(-0.000000, 311.490909, 261.202159)" x="311.490909091" y="261.202159091">250</text>
     </g>
    </g>
    <g id="ytick_26">
     <g id="line2d_141">
      <g>
       <use style="stroke:#000000;stroke-width:0.5;" x="315.490909091" xlink:href="#mda39fc7fe4" y="231.709090909"/>
      </g>
     </g>
     <g id="line2d_142">
      <g>
       <use style="stroke:#000000;stroke-width:0.5;" x="518.4" xlink:href="#m4fa8c1c345" y="231.709090909"/>
      </g>
     </g>
     <g id="text_69">
      <text style="font-family:Bitstream Vera Sans;font-size:12.0px;font-style:normal;font-weight:400;text-anchor:end;" transform="rotate(-0.000000, 311.490909, 235.020341)" x="311.490909091" y="235.020340909">300</text>
     </g>
    </g>
    <g id="text_70">
     <text style="font-family:Bitstream Vera Sans;font-size:12.0px;font-style:normal;font-weight:400;text-anchor:middle;" transform="rotate(-90.000000, 281.090284, 310.254545)" x="281.090284091" y="310.254545455">Number of Worms</text>
    </g>
   </g>
   <g id="text_71">
    <text style="font-family:Bitstream Vera Sans;font-size:14.399999999999999px;font-style:normal;font-weight:400;text-anchor:middle;" transform="rotate(-0.000000, 416.945455, 226.709091)" x="416.945454545" y="226.709090909">spe-9(hc88) Adult Lifespans in Corrals</text>
   </g>
  </g>
 </g>
 <defs>
  <clipPath id="pa4589bd192">
   <rect height="157.090909091" width="202.909090909" x="315.490909091" y="231.709090909"/>
  </clipPath>
  <clipPath id="pdef1e7f95a">
   <rect height="157.090909091" width="202.909090909" x="72.0" y="43.2"/>
  </clipPath>
  <clipPath id="p9e22fb6d63">
   <rect height="157.090909091" width="202.909090909" x="315.490909091" y="43.2"/>
  </clipPath>
  <clipPath id="pe32bffe704">
   <rect height="157.090909091" width="202.909090909" x="72.0" y="231.709090909"/>
  </clipPath>
 </defs>
</svg>
